<svg width="18" height="18" viewBox="0 0 18 18" fill="none" xmlns="http://www.w3.org/2000/svg">
<g id="Container">
<mask id="mask0_25649_1863" style="mask-type:alpha" maskUnits="userSpaceOnUse" x="-1" y="0" width="19" height="18">
<circle id="Circle mask" cx="8.98169" cy="9" r="9" fill="#44546F"/>
</mask>
<g mask="url(#mask0_25649_1863)">
<path id="Vector" d="M7.53294 0.0918104C7.65727 0.0665408 7.77969 0.0388128 7.90457 0.0162763C8.42277 -0.0719741 8.85827 0.215183 8.96859 0.716425C9.07613 1.204 8.81813 1.6378 8.30635 1.76459C7.43383 1.97893 6.56953 2.21295 5.79907 2.69399C3.41405 4.18339 2.05944 6.31147 1.91491 9.17973C1.90335 9.3998 1.90316 9.62041 1.89728 9.84074C1.87997 10.4063 1.52935 10.7722 1.00283 10.771C0.515809 10.7704 0.152637 10.396 0.124044 9.84683C0.0640794 8.73485 0.204695 7.64044 0.556054 6.59284C1.71003 3.15227 4.06728 1.01393 7.53294 0.0918104Z" fill="white"/>
</g>
</g>
</svg>
