<svg xmlns="http://www.w3.org/2000/svg" width="218" height="100" viewBox="0 0 218 100"><g fill="none" fill-rule="evenodd"><path fill="#F19021" fill-rule="nonzero" d="M187.675204,38.9615026 C176.84335,39.6342468 181.706968,53.7316712 193.68191,52.9875336 C205.39581,52.2598715 199.215993,38.244824 187.675204,38.9615026 Z"/><path fill="#F19021" fill-rule="nonzero" d="M183.102854,30.2542699 C163.829692,30.2542699 148.205707,45.8673834 148.205707,65.1271349 C148.205707,84.3868865 163.829692,100 183.102854,100 C202.376015,100 218,84.3868865 218,65.1271349 C218,45.8673834 202.376015,30.2542699 183.102854,30.2542699 L183.102854,30.2542699 Z M183.102854,96.3452144 C170.470362,96.3474352 159.080511,88.74481 154.244725,77.0826676 C149.40894,65.4205252 152.079624,51.9957154 161.011359,43.0686246 C169.943093,34.1415338 183.37678,31.4703455 195.047894,36.300714 C206.719007,41.1310825 214.32893,52.5116704 214.32893,65.1353726 C214.32893,82.3699476 200.349428,96.3421813 183.102854,96.3452144 L183.102854,96.3452144 Z M182.050444,5.9091658 C173.765806,12.1670602 175.205657,21.7639629 175.205657,21.7639629 C175.205657,21.7639629 169.998563,8.25690593 163.236211,0 C162.323939,10.6293591 165.657028,24.713054 165.657028,24.713054 C165.657028,24.713054 161.422658,15.9811082 151.04694,15.492339 C159.65307,20.4349498 162.991656,29.3398869 163.755546,31.7288154 C168.884211,28.565233 174.749277,26.7917003 180.772714,26.5830084 C180.094005,24.3588335 177.681431,14.9870943 182.050444,5.9091658 L182.050444,5.9091658 Z"/><path fill="#FFF" fill-rule="nonzero" d="M3.03907432,68.5457741 L3.03907432,75.8443627 L0,75.8443627 L0,57.0404745 L6.39689422,57.0404745 C8.56582972,57.0404745 10.1961951,57.5557874 11.2879903,58.5864133 C12.3797856,59.6170392 12.9293469,61.0284292 12.9366744,62.8205832 C12.9366744,64.5980925 12.3770377,65.9966683 11.2577644,67.0163106 C10.1384911,68.0359529 8.52186481,68.5457741 6.40788545,68.5457741 L3.03907432,68.5457741 Z M9.83440052,62.8205832 C9.83440052,61.755176 9.53672145,60.9423911 8.94136332,60.3822286 C8.34600518,59.822066 7.39160028,59.5429 6.07814863,59.5447217 L3.03907432,59.5447217 L3.03907432,66.0689769 L6.07814863,66.0689769 C8.58048469,66.0689769 9.83256865,64.986179 9.83440052,62.8205832 L9.83440052,62.8205832 Z M25.4804124,75.8443627 L20.7899062,68.3343402 L18.6301301,68.3343402 L18.6301301,75.8443627 L15.5910558,75.8443627 L15.5910558,57.0404745 L22.229757,57.0404745 C24.3785419,57.0404745 26.0089073,57.5640251 27.1208531,58.6111264 C28.2327989,59.6582276 28.7878559,61.0439892 28.786024,62.7684112 C28.786024,64.2328885 28.372937,65.440167 27.5467631,66.3902466 C26.7205892,67.3403262 25.5298729,67.9435078 23.9746143,68.1997913 L28.9206665,75.8443627 L25.4804124,75.8443627 Z M18.6301301,66.1760668 L21.9824544,66.1760668 C24.4371618,66.1760668 25.6635995,65.0932689 25.6617697,62.9276731 C25.6617697,61.8988778 25.3640886,61.0952459 24.7687305,60.5167774 C24.1724564,59.9401395 23.2464455,59.6518205 21.9824544,59.6518205 L18.6301301,59.6518205 L18.6301301,66.1760668 Z M42.7531259,71.7694547 L34.8092165,71.7694547 L33.3693657,75.8443627 L30.1187103,75.8443627 L37.048679,57.3342852 L40.5411415,57.3342852 L47.4436321,75.8443627 L44.1902289,75.8443627 L42.7531259,71.7694547 Z M41.898558,69.4272063 L38.7797973,60.6403427 L35.6610366,69.4272063 L41.898558,69.4272063 Z M62.7956287,58.5314954 C64.287365,59.6324159 65.336807,61.2293402 65.7550166,63.034763 L62.5565695,63.034763 C62.1580357,62.0344164 61.4530147,61.1857119 60.5424271,60.6101378 C59.5499125,59.9892087 58.3964131,59.6740554 57.2258243,59.7039925 C56.1170878,59.6859306 55.0244634,59.9707647 54.0658465,60.527761 C53.1280256,61.0830782 52.3697391,61.8961202 51.8813401,62.8700093 C51.3381285,63.9836473 51.0731839,65.2122855 51.1092064,66.4506563 C51.0735842,67.731703 51.3478877,69.0024177 51.9088182,70.1548685 C52.4062765,71.1474505 53.1901978,71.9681299 54.159272,72.5108463 C55.1929551,73.0721054 56.3546096,73.3559309 57.5308309,73.3346148 C59.0073236,73.3603573 60.4404852,72.8356546 61.5508722,71.8628151 C62.6683137,70.8962601 63.3433582,69.5690776 63.5760058,67.8812675 L56.6652718,67.8812675 L56.6652718,65.6433632 L66.1259706,65.6433632 L66.1259706,68.5457741 C65.9264134,69.898443 65.4208247,71.1878301 64.6476505,72.3158877 C63.8633214,73.4544737 62.8112621,74.3832247 61.5838459,75.0205942 C60.2369023,75.7117173 58.7396937,76.0588733 57.2258243,76.0310835 C55.5275651,76.0658523 53.8512933,75.6428075 52.3731975,74.8064144 C50.9869444,74.008064 49.8588181,72.8292633 49.1225421,71.4097424 C47.5946225,68.2741902 47.5946225,64.610647 49.1225421,61.4750947 C49.8557191,60.061421 50.9790598,58.8874034 52.3594585,58.0921522 C53.8354198,57.2643173 55.5061582,56.8462122 57.1983463,56.8812126 C59.4387247,56.8812126 61.3044856,57.4313069 62.7956287,58.5314954 L62.7956287,58.5314954 Z M87.5835938,57.3342852 L87.5835938,75.8443627 L84.5170414,75.8443627 L84.5170414,61.9693558 L79.161566,75.8443627 L76.4961934,75.8443627 L71.1104921,61.9693558 L71.1104921,75.8443627 L68.0741656,75.8443627 L68.0741656,57.3342852 L71.7507311,57.3342852 L77.881088,72.1154374 L83.9042805,57.3342852 L87.5835938,57.3342852 Z M102.454724,71.7694547 L94.5245538,71.7694547 L93.084703,75.8443627 L89.8230564,75.8443627 L96.7530251,57.3342852 L100.24274,57.3342852 L107.147978,75.8443627 L103.894575,75.8443627 L102.454724,71.7694547 Z M101.602904,69.4272063 L98.4841434,60.6403427 L95.3653827,69.4272063 L101.602904,69.4272063 Z M120.153348,57.0404745 L120.153348,59.4898127 L114.902289,59.4898127 L114.902289,75.8443627 L111.835737,75.8443627 L111.835737,59.4898127 L106.614904,59.4898127 L106.614904,57.0404745 L120.153348,57.0404745 Z M124.816376,57.0404745 L124.816376,75.8443627 L121.780049,75.8443627 L121.780049,57.0404745 L124.816376,57.0404745 Z M142.009403,58.6111264 C143.5512,59.8047526 144.64124,61.4866028 145.100686,63.3807458 L141.874761,63.3807458 C141.462851,62.2833994 140.723244,61.3391627 139.756201,60.6760393 C138.701146,59.9851169 137.458562,59.636093 136.197792,59.6765336 C135.140322,59.6596675 134.1001,59.9455056 133.199934,60.500302 C132.299897,61.0759732 131.579292,61.892154 131.119845,62.8562799 C130.108792,65.1288179 130.108792,67.7230686 131.119845,69.9956066 C131.578494,70.9609865 132.299218,71.7782537 133.199934,72.3543303 C134.100039,72.9092686 135.140303,73.1951184 136.197792,73.1780987 C137.45827,73.2193524 138.70083,72.871294 139.756201,72.1813389 C140.717993,71.5245415 141.456931,70.5907377 141.874761,69.5040914 L145.100686,69.5040914 C144.643958,71.3948789 143.553002,73.0723285 142.009403,74.2572354 C140.481622,75.4214949 138.562737,76.0036246 136.252748,76.0036246 C134.598952,76.0349034 132.96788,75.6153156 131.534764,74.789939 C130.173974,73.9907864 129.072921,72.8161301 128.363794,71.4069965 C126.868833,68.2639334 126.868833,64.6154119 128.363794,61.4723488 C129.075506,60.0614523 130.175636,58.8830179 131.534764,58.0756769 C132.965385,57.24307 134.59749,56.8194169 136.252748,56.8510077 C138.560906,56.8528383 140.479791,57.4395445 142.009403,58.6111264 L142.009403,58.6111264 Z M159.435994,68.5457741 L159.435994,75.8443627 L156.399667,75.8443627 L156.399667,57.0404745 L162.796561,57.0404745 C164.961833,57.0404745 166.592199,57.5557874 167.687658,58.5864133 C168.783117,59.6170392 169.332678,61.0284292 169.336342,62.8205832 C169.336342,64.5980925 168.776705,65.9966683 167.657432,67.0163106 C166.538158,68.0359529 164.921532,68.5457741 162.807553,68.5457741 L159.435994,68.5457741 Z M166.242311,62.8205832 C166.242311,61.755176 165.944632,60.9423911 165.349274,60.3822286 C164.753916,59.822066 163.798595,59.5429 162.483311,59.5447217 L159.435994,59.5447217 L159.435994,66.0689769 L162.475068,66.0689769 C164.986563,66.0689769 166.242311,64.986179 166.242311,62.8205832 L166.242311,62.8205832 Z M174.548931,73.4746554 L181.05299,73.4746554 L181.05299,75.8443627 L171.509857,75.8443627 L171.509857,57.0404745 L174.548931,57.0404745 L174.548931,73.4746554 Z M194.965136,71.7694547 L187.023974,71.7694547 L185.584123,75.8443627 L182.33072,75.8443627 L189.263437,57.3342852 L192.753151,57.3342852 L199.65839,75.8443627 L196.404986,75.8443627 L194.965136,71.7694547 Z M194.113316,69.4272063 L190.994555,60.6403427 L187.875794,69.4272063 L194.113316,69.4272063 Z M211.855904,57.0404745 L205.593652,68.9988467 L205.593652,75.8443627 L202.535343,75.8443627 L202.535343,68.9988467 L196.245614,57.0404745 L199.765554,57.0404745 L204.085106,65.7504531 L208.401911,57.0404745 L211.855904,57.0404745 Z"/></g></svg>