<svg xmlns="http://www.w3.org/2000/svg" xmlns:xlink="http://www.w3.org/1999/xlink" width="179" height="75" viewBox="0 0 179 75"><defs><path id="a" d="M70.1457421,0.394455089 C71.7338839,-0.419142469 74.8052501,-0.278205445 74.8052501,3.79337401 C74.8052501,7.86495346 74.0685649,10.2351031 71.9683061,12.185035 C70.5681335,13.4849895 69.8434579,14.5148281 69.7942792,15.2745507 C70.4226987,14.8376218 71.2458452,14.3993247 72.2637189,13.9596594 C72.2637189,16.3664167 72.0470147,16.6200567 70.9684343,17.2154178 C70.2493807,17.6123253 69.4457694,18.0069523 68.5576002,18.3992989 C68.1322558,16.9879457 67.5180687,16.0815765 66.715039,15.6801913 C65.9144344,21.3500494 63.8386262,26.2395767 60.4876145,30.3487732 C61.3555466,31.1301455 62.4390006,31.067945 63.7379764,30.1621717 C63.7379764,33.0004989 62.0762369,34.2047898 58.7527579,33.7750442 C59.2427274,35.3532103 60.6654449,36.2125873 63.0209104,36.3531753 C62.7655869,37.5616358 62.6279184,39.6907427 60.076323,39.6907427 C58.1260616,39.6907427 57.2514057,38.6097277 56.5265993,37.7738446 C55.366187,36.4355986 54.0856674,36.1028583 52.6850406,36.7756235 C54.6444076,36.7756235 54.7859809,38.6944276 56.0877403,40.3033223 C56.9555799,41.3759188 57.9340989,41.9300613 59.0232974,41.9657499 C57.2322509,44.6634322 60.5838401,44.2379054 60.8143439,47.2046204 C61.0448476,50.1713354 59.9190762,50.6413304 59.0232974,53.3656935 C58.4261115,55.1819356 58.3359317,57.4819122 58.7527579,60.2656234 C59.4877122,55.5235999 62.7125499,52.6051158 64.0528108,50.9380703 C65.3930717,49.2710248 65.0840297,46.0169766 64.0528108,45.0537264 C63.0215919,44.0904761 63.2716876,44.1002249 64.0528108,42.5192084 C64.5735596,41.4651973 66.1731727,38.0711312 68.8516501,32.3370101 C68.1823431,34.3879076 67.1069996,38.4810371 65.6256198,44.6163985 L69.4794448,43.2123996 C68.6846357,47.7852158 66.429004,53.8623124 62.7125499,61.4436894 C66.4581932,60.8118985 70.1171208,55.5323225 71.3141047,49.4242692 C72.1120941,45.3522336 72.5236389,40.9952023 72.5487394,36.3531753 C73.4765468,38.674987 74.1766331,41.9812568 74.6489982,46.2719848 C75.1766401,51.0648193 73.9439145,53.7010562 72.3632547,56.070321 L72.0891396,56.4742181 C71.9506415,56.6752116 71.81018,56.8750369 71.6686448,57.0748841 L71.3844061,57.4749603 C71.1467866,57.808969 70.9078315,58.1452421 70.6716586,58.4892887 C69.1916417,60.6453136 67.1503291,63.7421267 64.5477209,67.7797279 L64.0528108,65.0076469 C63.3596527,65.9950696 61.9332439,69.325854 59.7735845,75 L59.7735845,69.9465278 C59.7735845,67.3169162 59.3725455,65.6686842 57.6164238,65.6686842 C56.445676,65.6686842 56.0824012,67.5175364 56.5265993,71.2152406 C55.2871377,70.4038665 53.8734495,69.6762408 52.2855348,69.0323637 C50.6976201,68.3884865 48.7358112,68.2997211 46.400108,68.7660674 C47.8717203,66.9929823 51.502708,67.3949067 52.6850406,67.7797279 C53.8673732,68.1645491 54.7859809,67.7927263 54.3524021,66.8178459 C53.9188234,65.8429655 53.3494638,64.0485014 52.6850406,59.8168363 C52.0206174,55.5851712 54.5317964,54.1568859 55.577326,53.76796 C56.6228555,53.379034 57.2254363,53.1000814 57.2254363,48.8297631 C57.2254363,44.5594449 55.1348882,41.3703888 53.0911906,39.8358928 C51.0474929,38.3013968 51.2037175,37.7742682 51.2037175,36.3531753 C51.2037175,35.4057801 50.2317288,34.6255337 48.2877514,34.0124362 C49.7803185,35.0882252 49.3078682,37.7540956 49.5288599,38.6944276 C49.6761877,39.3213156 50.5950794,39.8973502 52.2855348,40.4225314 C50.8361836,41.4129186 48.8743746,43.0509458 46.400108,45.3366127 C47.6585369,45.3795987 48.6277903,45.2853032 49.3078682,45.0537264 C49.9879461,44.8221495 51.2490535,43.8795371 53.0911906,42.2258891 C53.0911906,43.7467025 52.2855348,45.4269174 50.7256735,46.0169766 C49.685766,46.4103494 48.5259784,47.2063307 47.2463106,48.4049205 C49.9369407,48.1253408 52.0488979,47.6479344 53.5821823,46.9727015 C53.2546273,48.0978617 52.6809518,48.8147694 51.8611558,49.1234245 C51.0413597,49.4320796 49.850225,49.7813832 48.2877514,50.1713354 C49.5461803,50.8320877 51.2334178,51.2080152 53.3494638,51.2991181 C53.2647356,51.8847305 52.5494869,52.5735889 51.2037175,53.3656935 C49.1850635,54.5538504 48.9448489,54.8177522 47.2463106,54.4069342 C46.4848969,54.2227744 45.0452527,53.6707629 43.5719105,53.0766613 L42.8918607,52.8006581 C41.3104471,52.1552127 39.8049527,51.5190766 39.1803831,51.2991181 C37.8866318,50.8434898 38.2450796,49.3418319 38.2450796,47.2046204 C38.2450796,45.0674089 40.096776,44.9856558 43.2103655,43.2123996 C46.3239549,41.4391435 46.7951843,39.550441 46.7951843,37.3805533 C46.7951843,35.2106657 46.400108,31.1609285 48.9448489,29.142584 C51.4895899,27.1242395 53.8798098,27.836922 56.5265993,25.3809075 C59.1733889,22.924893 60.5400563,19.8145858 61.0448476,17.9262254 C61.3813751,16.6673184 61.2131114,15.8780074 60.5400563,15.5582922 C59.0847991,20.0542012 58.0527671,19.1749991 54.6602396,19.6146001 C51.267712,20.0542012 49.7043416,20.7736258 48.5956066,22.5744181 C47.85645,23.7749462 47.1246171,24.9019089 46.400108,25.9553062 C47.2786145,25.330049 48.3252903,23.8252115 49.2474757,22.8457133 C50.1696611,21.866215 51.4342622,20.7367052 53.8837649,20.7367052 C55.5167667,20.7367052 56.8947796,20.5646751 58.0178036,20.220615 C57.5520608,21.2012429 56.1514191,21.7097662 53.8158783,21.7461848 C54.3941266,23.6829688 54.0171807,24.9465045 52.6850406,25.5367917 C51.3529004,26.127079 50.3008402,25.8319353 49.5288599,24.6513609 C48.9361035,25.2416481 48.1752538,25.9916789 47.2463106,26.9014533 C46.3173674,27.8112276 44.9720524,28.3177093 43.2103655,28.4208984 C43.2103655,27.4679101 43.3954386,26.5065412 43.7655848,25.5367917 C42.5541198,24.776214 42.6081254,24.2726968 43.2103655,23.4151441 C43.6118588,22.8434423 45.0588249,21.2812962 47.5512638,18.7287059 C46.7792835,18.4845867 45.8242745,17.9801574 44.6862368,17.2154178 C48.8315563,17.7919085 51.2231959,17.6982972 51.8611558,16.9345839 C50.5956851,16.6894385 48.5351781,16.0200206 45.6796347,14.9263302 C46.6532703,13.7607495 49.3803017,13.4481037 51.8611558,13.228328 C53.5150585,13.0818109 54.9720762,12.8219568 56.2322087,12.4487658 C50.3295183,11.6316906 45.9889039,10.3759762 43.2103655,8.68162265 L52.2855348,8.68162265 C46.9313059,5.73765486 46.3568353,5.58890337 43.7655848,5.58890337 C41.1743342,5.58890337 39.1803831,5.99933328 37.4026251,5.99933328 C35.624867,5.99933328 33.6309159,5.58890337 31.0396653,5.58890337 C28.4484148,5.58890337 27.8739442,5.73765486 22.5197153,8.68162265 L31.5948846,8.68162265 C28.8163462,10.3759762 24.4757318,11.6316906 18.5730414,12.4487658 C19.8331739,12.8219568 21.2901916,13.0818109 22.9440943,13.228328 C25.4249484,13.4481037 28.1519798,13.7607495 29.1256154,14.9263302 C26.270072,16.0200206 24.209565,16.6894385 22.9440943,16.9345839 C23.5820542,17.6982972 25.9736938,17.7919085 30.1190133,17.2154178 C28.9809756,17.9801574 28.0259666,18.4845867 27.2539863,18.7287059 C29.7464252,21.2812962 31.1933913,22.8434423 31.5948846,23.4151441 C32.1971247,24.2726968 32.2511304,24.776214 31.0396653,25.5367917 C31.4098115,26.5065412 31.5948846,27.4679101 31.5948846,28.4208984 C29.8331977,28.3177093 28.4878827,27.8112276 27.5589395,26.9014533 C26.6299963,25.9916789 25.8691466,25.2416481 25.2763902,24.6513609 C24.5044099,25.8319353 23.4523497,26.127079 22.1202095,25.5367917 C20.7880694,24.9465045 20.4111235,23.6829688 20.9893718,21.7461848 C18.653831,21.7097662 17.2531893,21.2012429 16.7874465,20.220615 C17.9104705,20.5646751 19.2884834,20.7367052 20.9214852,20.7367052 C23.3709879,20.7367052 24.635589,21.866215 25.5577744,22.8457133 C26.4799598,23.8252115 27.5266356,25.330049 28.4051421,25.9553062 C27.680633,24.9019089 26.9488001,23.7749462 26.2096435,22.5744181 C25.1009085,20.7736258 23.5375381,20.0542012 20.1450105,19.6146001 C16.752483,19.1749991 15.720451,20.0542012 14.2651938,15.5582922 C13.5921387,15.8780074 13.423875,16.6673184 13.7604025,17.9262254 C14.2651938,19.8145858 15.6318612,22.924893 18.2786508,25.3809075 C20.9254403,27.836922 23.3156602,27.1242395 25.8604012,29.142584 C28.4051421,31.1609285 28.0100658,35.2106657 28.0100658,37.3805533 C28.0100658,39.550441 28.4812952,41.4391435 31.5948846,43.2123996 C34.7084741,44.9856558 36.5601705,45.0674089 36.5601705,47.2046204 C36.5601705,49.3418319 36.9186183,50.8434898 35.624867,51.2991181 C35.0002974,51.5190766 33.494803,52.1552127 31.9133894,52.8006581 L31.2333396,53.0766613 C29.7599974,53.6707629 28.3203532,54.2227744 27.5589395,54.4069342 C25.8604012,54.8177522 25.6201866,54.5538504 23.6015326,53.3656935 C22.2557632,52.5735889 21.5405145,51.8847305 21.4557863,51.2991181 C23.5718323,51.2080152 25.2590698,50.8320877 26.5174987,50.1713354 C24.9550251,49.7813832 23.7638904,49.4320796 22.9440943,49.1234245 C22.1242983,48.8147694 21.5506228,48.0978617 21.2230678,46.9727015 C22.7563522,47.6479344 24.8683094,48.1253408 27.5589395,48.4049205 C26.2792717,47.2063307 25.1194841,46.4103494 24.0795766,46.0169766 C22.5197153,45.4269174 21.7140595,43.7467025 21.7140595,42.2258891 C23.5561966,43.8795371 24.817304,44.8221495 25.4973819,45.0537264 C26.1774598,45.2853032 27.1467132,45.3795987 28.4051421,45.3366127 C25.9308755,43.0509458 23.9690665,41.4129186 22.5197153,40.4225314 C24.2101708,39.8973502 25.1290624,39.3213156 25.2763902,38.6944276 C25.4973819,37.7540956 25.0249316,35.0882252 26.5174987,34.0124362 C24.5735213,34.6255337 23.6015326,35.4057801 23.6015326,36.3531753 C23.6015326,37.7742682 23.7577572,38.3013968 21.7140595,39.8358928 C19.6703619,41.3703888 17.5798138,44.5594449 17.5798138,48.8297631 C17.5798138,53.1000814 18.1823946,53.379034 19.2279241,53.76796 C20.2734537,54.1568859 22.7846327,55.5851712 22.1202095,59.8168363 C21.4557863,64.0485014 20.8864267,65.8429655 20.452848,66.8178459 C20.0192692,67.7927263 20.9378769,68.1645491 22.1202095,67.7797279 C23.3025421,67.3949067 26.9335298,66.9929823 28.4051421,68.7660674 C26.0694389,68.2997211 24.10763,68.3884865 22.5197153,69.0323637 C20.9318006,69.6762408 19.5181124,70.4038665 18.2786508,71.2152406 C18.7228489,67.5175364 18.3595741,65.6686842 17.1888263,65.6686842 C15.4327046,65.6686842 15.0316656,67.3169162 15.0316656,69.9465278 L15.0316656,75 C12.8720062,69.325854 11.4455974,65.9950696 10.7524393,65.0076469 L10.2575292,67.7797279 C7.65492099,63.7421267 5.61360842,60.6453136 4.1335915,58.4892887 C4.03912233,58.35167 3.94420801,58.2152952 3.84911209,58.0798115 L3.56354301,57.6756813 C3.51594521,57.6086544 3.46836789,57.5417621 3.420844,57.4749603 L3.1366053,57.0748841 C1.24946874,54.4102545 -0.446767465,51.7495099 0.156251885,46.2719848 C0.628617043,41.9812568 1.32870332,38.674987 2.25651072,36.3531753 C2.28161115,40.9952023 2.69315603,45.3522336 3.49114536,49.4242692 C4.68812934,55.5323225 8.3470569,60.8118985 12.0927002,61.4436894 C8.3762461,53.8623124 6.12061445,47.7852158 5.32580527,43.2123996 L9.17963031,44.6163985 C7.69825047,38.4810371 6.62290704,34.3879076 5.95360003,32.3370101 C8.63207743,38.0711312 10.2316905,41.4651973 10.7524393,42.5192084 C11.5335625,44.1002249 11.7836582,44.0904761 10.7524393,45.0537264 C9.72122042,46.0169766 9.41217844,49.2710248 10.7524393,50.9380703 C12.0927002,52.6051158 15.3175379,55.5235999 16.0524922,60.2656234 C16.4693184,57.4819122 16.3791386,55.1819356 15.7819527,53.3656935 C14.8861739,50.6413304 13.7604025,50.1713354 13.9909062,47.2046204 C14.22141,44.2379054 17.5729992,44.6634322 15.7819527,41.9657499 C16.8711512,41.9300613 17.8496702,41.3759188 18.7175098,40.3033223 C20.0192692,38.6944276 20.1608425,36.7756235 22.1202095,36.7756235 C20.7195827,36.1028583 19.4390631,36.4355986 18.2786508,37.7738446 C17.5538444,38.6097277 16.6791885,39.6907427 14.7289271,39.6907427 C12.1773317,39.6907427 12.0396632,37.5616358 11.7843397,36.3531753 C14.1398052,36.2125873 15.5625227,35.3532103 16.0524922,33.7750442 C12.7290132,34.2047898 11.0672737,33.0004989 11.0672737,30.1621717 C12.3662495,31.067945 13.4497035,31.1301455 14.3176356,30.3487732 C10.9666239,26.2395767 8.89081571,21.3500494 8.0902111,15.6801913 C7.2871814,16.0815765 6.67299433,16.9879457 6.24764989,18.3992989 C5.35948073,18.0069523 4.55586937,17.6123253 3.83681579,17.2154178 C2.75823543,16.6200567 2.54153125,16.3664167 2.54153125,13.9596594 C3.5594049,14.3993247 4.38255145,14.8376218 5.01097088,15.2745507 C4.9617922,14.5148281 4.23711659,13.4849895 2.83694403,12.185035 C0.736685195,10.2351031 0,7.86495346 0,3.79337401 C0,-0.278205445 3.07136617,-0.419142469 4.65950803,0.394455089 C6.24764989,1.20805265 11.531007,3.41230855 14.7289271,3.97602887 C16.8608738,4.35184241 19.1031602,4.55719441 21.4557863,4.59208487 C20.0703787,4.79709481 18.7783879,4.97645 17.5798138,5.13015044 C15.7819527,5.3607011 15.9288073,5.20814087 13.0157374,4.59208487 C10.1026675,3.97602887 6.79980263,2.70184308 5.01097088,4.890022 C6.22954913,5.89751108 7.33579274,6.77165316 8.32970174,7.51244825 C7.1935219,7.2009426 6.327123,7.2009426 5.73050502,7.51244825 C7.39866303,8.84991711 8.54837146,10.7552104 9.17963031,13.228328 C10.1265186,16.9380045 11.5580951,22.9868809 17.5798138,27.1386742 C13.5812354,22.641682 11.3054439,16.616408 10.7524393,9.06285219 C12.7014141,9.31700523 14.02691,9.31700523 14.7289271,9.06285219 C12.1670929,7.79448148 10.2330534,6.96680232 8.92680876,6.5798147 C10.1282222,5.80583948 11.4911984,5.61234567 13.0157374,5.99933328 C15.3025458,6.5798147 16.9821716,6.70706225 18.7175098,6.35319777 C20.452848,5.99933328 26.9273967,2.73947004 37.4026251,2.73947004 L37.9318123,2.74224944 C48.0959682,2.84913906 54.3818146,6.00533099 56.0877403,6.35319777 C57.8230785,6.70706225 59.5027043,6.5798147 61.7895127,5.99933328 C63.3140517,5.61234567 64.6770279,5.80583948 65.8784413,6.5798147 C64.5721967,6.96680232 62.6381572,7.79448148 60.076323,9.06285219 C60.7783401,9.31700523 62.103836,9.31700523 64.0528108,9.06285219 C63.4998062,16.616408 61.2240147,22.641682 57.2254363,27.1386742 C63.247155,22.9868809 64.6787315,16.9380045 65.6256198,13.228328 C66.2568786,10.7552104 67.4065871,8.84991711 69.0747451,7.51244825 C68.4781271,7.2009426 67.6117282,7.2009426 66.4755484,7.51244825 C67.4694574,6.77165316 68.575701,5.89751108 69.7942792,4.890022 C68.2955283,3.0566829 65.7339682,3.65382773 63.2293141,4.25803335 L62.7455537,4.37441376 C62.4239213,4.45119177 62.1044392,4.52548422 61.7895127,4.59208487 C58.8764428,5.20814087 59.0232974,5.3607011 57.2254363,5.13015044 C56.0268622,4.97645 54.7348714,4.79709481 53.3494638,4.59208487 C55.7020899,4.55719441 57.9443763,4.35184241 60.076323,3.97602887 C63.2742431,3.41230855 68.5576002,1.20805265 70.1457421,0.394455089 Z M37.4026251,56.6311222 L37.8948952,56.6342533 C41.8061586,56.6938629 45.0718827,57.5829174 47.6920673,59.3014169 C50.4214263,61.0915206 51.8680212,63.41787 52.0318519,66.2804651 C51.8054362,65.9117049 51.3699796,65.337195 50.7254819,64.5569356 C49.7587353,63.3865464 47.4777048,62.595761 47.1743769,64.5569356 C46.8710491,66.5181101 46.1784302,66.9322338 43.41273,68.0722126 C40.6470299,69.2121914 38.6212972,68.1664388 38.252656,67.7309498 C38.0068953,67.4406238 37.7235516,67.1743851 37.4026251,66.9322338 C37.0816985,67.1743851 36.7983548,67.4406238 36.5525941,67.7309498 C36.1839529,68.1664388 34.1582202,69.2121914 31.3925201,68.0722126 C28.6268199,66.9322338 27.934201,66.5181101 27.6308732,64.5569356 C27.3275453,62.595761 25.0465148,63.3865464 24.0797682,64.5569356 C23.4352705,65.337195 22.9998139,65.9117049 22.7733982,66.2804651 C22.9372289,63.41787 24.3838238,61.0915206 27.1131828,59.3014169 C29.8425418,57.5113132 33.2723559,56.621215 37.4026251,56.6311222 Z M43.7659952,36.2546609 C44.7356337,37.0257842 44.9555762,37.8059726 44.4258226,38.5952261 C43.9119616,39.3608019 41.091698,40.2668047 37.4026251,40.2668047 C33.7135521,40.2668047 30.8932885,39.3608019 30.3794275,38.5952261 C29.8496739,37.8059726 30.0696164,37.0257842 31.0392549,36.2546609 C30.8669932,37.0002223 31.3406794,37.6432644 32.4603134,38.1837873 C33.5099703,38.6905275 35.2072722,38.9622765 37.0354068,38.9942657 L37.4026251,38.9974653 C39.3687926,38.9974653 41.2253027,38.7243102 42.3449367,38.1837873 C43.4645707,37.6432644 43.9382569,37.0002223 43.7659952,36.2546609 Z M94.6030138,9.61567035 C98.7959714,9.61567035 102.102793,12.6721669 102.102793,17.2374029 C102.102793,21.2495964 100.006625,23.2730709 96.9756344,24.2732598 L104.429699,34.2955663 L96.4459179,34.2955663 L90.3092148,24.8591355 L90.2999959,24.8591355 L90.2999959,34.2955663 L83.9733115,34.2955663 L83.9733115,9.61567035 L94.6030138,9.61567035 Z M120.125794,9.61567035 L120.125794,15.0597651 L112.533088,15.0596704 L112.533088,19.2326704 L119.764269,19.233571 L119.764269,24.6776657 L112.533088,24.6766704 L112.533088,28.8506704 L120.125794,28.8514716 L120.125794,34.2955663 L106.207088,34.2955663 L106.207088,9.61567035 L120.125794,9.61567035 Z M124.102567,34.2955663 L124.102567,9.61567035 L133.454108,9.61567035 C140.269273,9.61567035 145.794056,15.1404533 145.794056,21.9556184 C145.794056,28.7707834 140.269273,34.2955663 133.454108,34.2955663 L124.102567,34.2955663 Z M132.209994,15.0597651 L130.429251,15.0597651 L130.429251,28.8514716 L132.209994,28.8514716 C136.018468,28.8514716 139.105847,25.764093 139.105847,21.9556184 C139.105847,18.1471437 136.018468,15.0597651 132.209994,15.0597651 Z M92.2883824,14.5153556 L90.2999959,14.5153556 L90.2999959,20.6853296 L92.2883824,20.6853296 C93.9855319,20.6853296 95.3613434,19.3041339 95.3613434,17.6003426 C95.3613434,15.8965513 93.9855319,14.5153556 92.2883824,14.5153556 Z M168.143604,40.6470102 C172.352971,40.6470102 175.765337,44.0593761 175.765337,48.2687428 C175.765337,51.6401027 173.576404,54.5002101 170.542225,55.5053801 L178,65.3269062 L170.016219,65.3269062 L163.879613,55.8900102 L163.869613,55.8900102 L163.870297,65.3269062 L157.543613,65.3269062 L157.543613,40.6470102 L168.143604,40.6470102 Z M165.846658,45.5466954 L163.870297,45.5466954 L163.870297,51.7166694 L165.846658,51.7166694 C167.550449,51.7166694 168.931645,50.3354737 168.931645,48.6316824 C168.931645,46.9278911 167.550449,45.5466954 165.846658,45.5466954 Z M123.921804,39.8623711 C130.429251,39.8623711 133.254526,42.4243891 135.413949,46.7270922 L129.442338,49.3095714 C128.358829,46.9015621 126.292603,45.2744907 123.921804,45.2744907 C120.427673,45.2744907 117.59512,48.8087268 117.59512,53.168428 C117.59512,57.5281292 120.427673,60.9516374 123.921804,60.9516374 C126.42503,60.9516374 128.779442,59.4770093 129.281237,56.6163546 L124.102567,56.6163546 L124.102567,51.5351996 L130.112932,51.5353066 L136.755936,51.5350319 C136.755936,52.0518878 136.755936,52.4366948 136.755936,52.8962233 C136.755936,60.2626149 132.30833,66.2166133 123.921804,66.2166133 C115.535278,66.2166133 110.726148,60.2626149 110.726148,52.8962233 C110.726148,45.5298316 115.961184,39.8623711 123.921804,39.8623711 Z M153.56684,40.6470102 L153.56684,46.0911049 L145.974134,46.0910102 L145.974134,50.2640102 L153.205315,50.2649108 L153.205315,55.7090055 L145.974134,55.7080102 L145.974134,59.8820102 L153.56684,59.8828115 L153.56684,65.3269062 L139.648134,65.3269062 L139.648134,40.6470102 L153.56684,40.6470102 Z M99.157354,40.6470102 L99.157354,46.0911049 L93.9144498,46.0910102 L93.9152441,65.3269062 L87.5885597,65.3269062 L87.5884498,46.0910102 L82.3464498,46.0911049 L82.3464498,40.6470102 L99.157354,40.6470102 Z M101.507265,40.6470102 L107.83395,40.6470102 L107.83395,65.3269062 L101.507265,65.3269062 Z"/></defs><g fill="none" fill-rule="evenodd"><use xlink:href="#a" fill="#EB2027"/><use xlink:href="#a" fill="#FFF" fill-opacity=".3"/></g></svg>