<svg width="179px" height="48px" viewBox="0 0 179 48" xmlns="http://www.w3.org/2000/svg"><g id="prefix__Published" stroke="none" stroke-width="1" fill="none" fill-rule="evenodd"><g id="prefix__1.1-|-Logos-Batch-02" transform="translate(-1409, -270)" fill="color(display-p3 1.000 1.000 1.000)"><g id="prefix__ReelPlay-Logo" transform="translate(1409.9038, 270)"><path d="M122.008 6.697v34.125h13.859l.475-6.23h-8.223V6.698h-6.11Zm-3.305 12.185c0 7.46-4.03 11.148-12.092 11.06v10.88h-7.68V6.696h8.772c5.134 0 11 .996 11 12.186Zm-12.3-4.97a.531.531 0 0 0-.092.3v8.094a.531.531 0 0 0 .845.428l5.725-4.2a.531.531 0 0 0-.016-.867l-5.725-3.895a.531.531 0 0 0-.738.14Zm38.373-7.215 8.126.52 7.165 33.605h-5.947l-1.842-6.073h-5.833l-.714 6.073h-6.18l5.225-34.125Zm19.35 0 3.446 10.862 2.802-10.862H178l-7.626 19.675.538 14.45h-6.786V25.72l-6.909-19.022h6.909Zm-15.467 10.862-1.57 11.617h3.962l-2.392-11.617ZM23.74.325v47.253L0 48V.325h23.74ZM11.094 7.216H2.587v34.158h6.147V28.536H9.87l3.774 12.431h7.187l-.554-1.552V36.12h.824l.411 3.956.407.94.468-.194-.345-.746-.53-4.73v-3.055l.407-2.749-.188-1.1-.63.144.411.956-.41 1.985-.8-.142v-1.226h-.888v.916l.402.163.144.7-.67.353-.928 1.75-2.76-7.745c2.718-1.7 3.993-4.889 3.825-9.567-.253-7.016-4.146-9.513-8.332-9.513Zm8.72 26.312v2.298l-.251 1.588-.903-2.535.628-1.351h.527ZM8.86 14.649a.531.531 0 0 1 .736-.147l4.785 3.19a.531.531 0 0 1 .015.873l-4.784 3.44a.531.531 0 0 1-.841-.43v-6.631c0-.105.03-.207.089-.295ZM46.662.687v46.521l-20.17.341V.687h20.17Zm-2.822 6.53H30.674v33.605h12.76v-6.034h-6.831v-8.343h6.83v-6.04h-6.38V12.8h6.787V7.216ZM69.865.686v46.49H49.58V.686h20.286Zm-2.902 6.53H53.797v33.605h12.759v-6.034h-6.83v-8.343h6.83v-6.04h-6.38V12.8h6.787V7.216ZM93.122 0l.403 47.176H72.761V.326L93.122 0ZM81.873 6.697h-6.11v34.125H89.62l.475-6.23h-8.223V6.698Z" id="prefix__Combined-Shape"/></g></g></g></svg>