<svg xmlns="http://www.w3.org/2000/svg" width="244" height="57" viewBox="0 0 244 57"><path fill="#FFF" d="M16.9211582,14.4530369 L0.982643275,14.953323 C0.702669361,14.9633252 0.442693585,15.0833519 0.262710355,15.2933985 C0.0727280564,15.5034452 -0.0172635586,15.7735052 0.00273457804,16.0435652 L0.29270756,20.3845299 C0.332703833,20.9246499 0.782661908,21.3447433 1.3226116,21.3347411 L5.65220819,21.2847299 L6.63211688,41.6692598 C6.64211595,41.9393198 6.77210384,42.1993776 6.9720852,42.3794176 C7.18206564,42.5594577 7.45204048,42.6594799 7.72201533,42.6394754 L12.6115597,42.3094021 L12.6115597,42.3094021 C13.1615085,42.2693932 13.5814694,41.809291 13.5614712,41.2591687 L12.9915243,21.1747055 L17.2811247,21.1246944 C17.5610986,21.1246944 17.8210743,21.0046677 18.0110566,20.794621 C18.2010389,20.5845743 18.3010296,20.3145143 18.2810315,20.0344521 L17.9710604,15.403423 C17.9410632,14.863303 17.471107,14.4432096 16.9211582,14.4530369 Z M35.479429,15.7835074 L30.6598781,15.5234497 C30.0999303,15.5134474 29.6599712,15.943543 29.629974,16.4936653 L29.5599806,27.126028 L27.4601762,27.576128 L26.9302256,15.5134474 C26.9102275,14.9733274 26.4602694,14.5432318 25.9203197,14.5432318 L21.1707622,14.6632585 C20.8907883,14.6632585 20.6308125,14.773283 20.4408302,14.9633252 C20.2408489,15.1633696 20.1408582,15.4234274 20.1408582,15.7034897 L21.0107771,42.5194488 C21.0207762,43.069571 21.4707343,43.519671 22.020683,43.5296733 L26.7702405,43.4096466 C27.0502144,43.4096466 27.3101902,43.3096244 27.5001725,43.1095799 C27.6901548,42.9195377 27.8001445,42.6494777 27.8001445,42.3794176 L27.280193,33.3974216 L29.1400197,33.5274505 L29.469989,41.5692376 C29.4599899,41.8492998 29.5599806,42.1193599 29.7499629,42.3194043 C29.9399452,42.5194488 30.1999209,42.6394754 30.4798949,42.6394754 L35.4394327,42.979551 C35.4594309,42.979551 35.479429,42.979551 35.4994272,42.979551 C36.0293778,42.9595466 36.4493386,42.529451 36.4693368,41.989331 L36.4893349,16.8437431 C36.499334,16.5636808 36.3993433,16.303623 36.209361,16.1035786 C36.0193787,15.9035341 35.7594029,15.7835074 35.479429,15.7835074 Z M53.3477641,13.5330073 L48.9581731,13.8630807 C48.4282225,13.9030896 48.0182607,14.3431874 48.0182607,14.8733052 C48.0182607,14.8733052 48.058257,31.6570349 47.9982626,33.8475217 C47.9582663,35.1478106 48.1382495,37.3382974 46.7083828,37.3983107 C45.7284741,37.4383196 45.3885057,36.0080018 45.3685076,33.9775506 C45.3485095,31.6970438 45.5384918,16.0835741 45.5384918,15.9235386 C45.5484908,15.3934208 45.1485281,14.953323 44.6285765,14.8933096 L39.6490405,14.3631918 C39.3590675,14.3331852 39.0690945,14.4232052 38.8591141,14.6232496 C38.6391346,14.8232941 38.5191458,15.1033563 38.5291449,15.3934208 C38.5291449,15.3934208 38.7191272,35.0577906 38.7291262,35.747944 C38.7891206,38.2985108 40.748938,42.8695266 46.2784228,42.7194932 C52.4778452,42.5494554 53.5977408,38.8586353 53.9777054,34.5476773 C54.1376905,32.7572794 54.4276635,16.3636364 54.4476616,14.5432318 C54.4476616,14.2531674 54.3276728,13.9831074 54.1276915,13.7930651 C53.9277101,13.6030229 53.627738,13.5030007 53.3477641,13.5330073 Z M72.6159688,14.6032452 L68.0663927,14.8232941 L68.0663927,14.8232941 C67.7964179,14.8332963 67.5364421,14.9633252 67.3564589,15.1633696 C67.1764756,15.3734163 67.086484,15.6434763 67.0964831,15.9135363 L67.8464132,28.5063347 L63.136852,15.493443 C62.9768669,15.0533452 62.5369079,14.7832852 62.0769508,14.8332963 L57.5173756,15.3334074 C56.9974241,15.3934208 56.5974613,15.8335186 56.6074604,16.3636364 L57.3573905,41.1891531 C57.3573905,41.7192709 57.7773514,42.169371 58.307302,42.1993776 L62.8768762,42.5394532 C63.1668492,42.5594577 63.4568222,42.4594354 63.6668026,42.2493888 C63.8767831,42.0493443 63.9867728,41.7592798 63.9767738,41.4692154 L63.2668399,30.6068015 L67.2164719,41.8893087 C67.3564589,42.2693932 67.7064262,42.529451 68.1163881,42.5594577 L72.9259399,42.5594577 C72.9659362,42.5594577 72.9959334,42.5594577 73.0359297,42.5594577 C73.2759073,42.5494554 73.515885,42.4494332 73.6958682,42.2793954 C73.8958495,42.079351 74.0158384,41.809291 74.0158384,41.5292287 L73.7258654,15.6234719 C73.7258654,15.3434096 73.6058766,15.0833519 73.4058952,14.8933096 C73.1659176,14.6832629 72.8959427,14.5832407 72.6159688,14.6032452 Z M78.7154005,14.0731274 C78.3954303,14.0731274 78.0754601,14.0731274 77.7454909,14.0831296 C77.2055412,14.0931318 76.7655822,14.5332296 76.7555831,15.0733496 L75.9356595,40.869082 C75.9156613,41.4192043 76.3356222,41.8793065 76.8755719,41.9193154 C76.89557,41.9193154 77.475516,41.9693265 78.3854312,41.9693265 L78.3854312,41.9693265 C81.5851331,41.9693265 89.2344204,41.3891976 90.9942564,36.0080018 C92.4641194,31.5370082 92.2241418,25.4256501 91.8541763,22.5150033 C91.1242443,16.8337408 86.8246449,14.0731274 78.7154005,14.0731274 Z M85.524766,31.0669038 C84.9848163,35.4278729 83.614944,35.6979329 82.1150837,36.2180485 L82.8150185,20.0144477 C83.3349701,20.1544788 83.9949086,20.1344743 84.8348303,21.2547233 C86.0747148,22.8950878 86.0547166,26.8059569 85.524766,31.0669038 Z M106.772786,37.3783063 L100.793343,37.8484108 L100.513369,32.2671705 L104.383009,32.0471216 C104.882962,32.0171149 105.282925,31.6270282 105.33292,31.1369193 L105.692887,27.7061569 C105.722884,27.4060902 105.622893,27.1060236 105.422912,26.8959769 C105.212932,26.675928 104.922959,26.5659035 104.622987,26.5759058 L100.423378,26.7959547 L100.423378,20.7246055 L106.6228,20.7246055 L106.632799,20.7246055 C107.202746,20.7346077 107.652704,20.2645032 107.652704,19.7043788 C107.652704,19.624361 107.642705,19.5543454 107.632706,19.4743276 L107.282739,15.8335186 C107.232743,15.2933985 106.782785,14.9033118 106.232837,14.913126 L94.8738949,15.1933763 C94.3139471,15.2133808 93.8739881,15.673483 93.8839871,16.2236052 L94.2439536,41.7392754 C94.2539527,42.2993999 94.7039107,42.7494999 95.2638586,42.7494999 L106.752788,42.7494999 C107.302737,42.7494999 107.762694,42.3094021 107.772693,41.7592798 L107.862685,38.4285397 C107.872684,38.1384752 107.752695,37.858413 107.542714,37.6583685 C107.352732,37.4583241 107.062759,37.3583018 106.772786,37.3783063 Z M125.351055,22.4149811 C125.101078,18.8341854 123.861194,14.0831296 116.07192,14.0831296 C114.402075,14.0831296 112.442258,14.3031785 110.242463,14.7332741 C109.762508,14.8232941 109.41254,15.2533896 109.422539,15.7535008 L109.782506,40.7190487 C109.792505,41.2491665 110.202467,41.6792621 110.722418,41.7192709 L114.302085,41.9993332 C114.582059,42.0293399 114.862033,41.9293176 115.072013,41.7292732 C115.281993,41.5392309 115.401982,41.2691709 115.401982,40.9791065 L115.401982,32.9273172 L117.221813,32.827295 L119.241624,41.4492109 C119.331616,41.9393198 119.761576,42.2793954 120.241531,42.2793954 C120.271528,42.2793954 120.291527,42.2793954 120.321524,42.2793954 L123.90119,41.9993332 C124.191163,41.9793287 124.451139,41.8392976 124.631122,41.6092465 C124.811105,41.3791954 124.881099,41.0891309 124.831104,40.8090687 L122.29134,31.2169371 C124.061175,29.8466326 125.711022,27.3860858 125.351055,22.4149811 Z M118.891657,25.9357635 C117.971743,26.9259836 116.39189,27.2260502 115.391983,27.306068 L115.391983,19.9444321 C115.711953,19.8744165 116.051922,19.8344076 116.371892,19.8344076 C117.741764,19.8344076 119.411609,20.4445432 119.631588,23.3751945 C119.72158,24.4654368 119.481602,25.3056235 118.891657,25.9357635 Z M138.989784,29.7266059 C140.469646,27.7761725 144.209298,23.2551678 143.819334,15.3434096 C143.809335,15.0733496 143.679347,14.8132918 143.479366,14.6332518 C143.279385,14.4532118 143.00941,14.3531896 142.729436,14.373194 L138.479832,14.6532563 C137.919884,14.6932652 137.489924,15.1733719 137.52992,15.7434986 C137.679906,17.9839964 136.200044,22.7650589 134.070243,25.7757279 L134.380214,16.0435652 C134.390213,15.763503 134.280223,15.493443 134.080242,15.3034008 C133.88026,15.1033563 133.620285,14.9933319 133.340311,15.0033341 L127.860821,15.0833519 C127.590846,15.0833519 127.330871,15.2033785 127.140888,15.3934208 C126.950906,15.5934652 126.850915,15.853523 126.860914,16.123583 L127.410863,41.9593243 C127.420862,42.2493888 127.540851,42.5194488 127.77083,42.709491 C127.990809,42.8995332 128.290781,42.9895532 128.570755,42.9495443 L132.840357,42.3794176 C133.340311,42.3094021 133.720275,41.8893087 133.730274,41.3791954 L133.800268,33.8075128 C134.670187,34.3276284 137.20995,38.0084463 137.63991,41.6492554 C137.699905,42.169371 138.139864,42.5594577 138.659815,42.5494554 L143.159396,42.529451 C143.179394,42.529451 143.199392,42.529451 143.21939,42.529451 C143.469367,42.5094465 143.709345,42.4094243 143.879329,42.2193821 C144.069311,42.0193376 144.179301,41.7592798 144.169302,41.4792176 C144.129306,40.5790176 142.599448,32.6372527 138.989784,29.7266059 Z M151.728597,13.8430762 L146.859051,14.4732163 C146.349099,14.5332296 145.969134,14.9733274 145.969134,15.4834408 L145.929138,40.7990665 C145.929138,41.0791287 146.049127,41.3591909 146.259107,41.5492332 C146.459088,41.7392754 146.729063,41.8392976 146.999038,41.8192932 C147.009037,41.8192932 147.019036,41.8192932 147.029035,41.8192932 L152.328542,41.4292065 C152.868491,41.3891976 153.278453,40.9390976 153.278453,40.3989776 L152.898488,14.8533007 C152.888489,14.5632363 152.768501,14.283174 152.548521,14.0931318 C152.318542,13.8930874 152.01857,13.8030673 151.728597,13.8430762 Z M162.087632,14.5832407 C160.60777,14.6832629 155.768221,15.5434541 155.368258,22.6850411 C155.318263,23.5952434 155.268268,24.4554345 155.218272,25.2756168 C154.928299,30.1266948 154.718319,33.637475 155.338261,36.6781507 C155.718226,38.4985552 157.228085,42.709491 163.237525,42.709491 C163.607491,42.709491 163.997454,42.6894866 164.387418,42.6594799 C166.897184,42.4494332 168.757011,41.6492554 169.906904,40.2689487 C171.55675,38.308513 171.33677,35.7979551 171.216782,34.447655 L171.196783,34.177595 C171.156787,33.6274728 170.686831,33.2173816 170.136882,33.2373861 L166.347235,33.4074239 C166.057262,33.4174261 165.787288,33.5574572 165.597305,33.7875083 C165.417322,34.0175595 165.337329,34.3076239 165.377326,34.5976884 C165.457318,35.1078017 165.54731,36.7281618 164.887371,37.5283396 C164.717387,37.7283841 164.407416,38.0084463 163.697482,38.0184485 L163.647487,38.0184485 C163.097538,38.0184485 162.687576,37.858413 162.367606,37.5083352 C161.817657,36.9282063 161.197715,35.4978884 161.367699,32.0271171 C161.407696,31.2169371 161.447692,30.2767282 161.487688,29.2765059 C161.587679,26.675928 161.707668,23.7152701 161.947645,21.8648589 L161.957644,21.8048455 C162.137628,20.3945321 162.407602,19.7943988 163.587492,19.7443876 C164.427414,19.7043788 165.017359,19.8744165 165.32733,20.254501 C165.727293,20.7346077 165.677298,21.5447877 165.627302,21.8148477 C165.567308,22.1149144 165.647301,22.4249833 165.837283,22.6550345 C166.027265,22.8950878 166.317238,23.0351189 166.61721,23.0351189 L171.186784,23.0951323 C171.726734,23.0951323 172.19669,22.6650367 172.216688,22.1049122 C172.226688,21.9848855 172.296681,19.2042676 170.196877,17.0237831 C168.427042,15.1733719 165.687297,14.3431874 162.087632,14.5832407 Z M192.454803,40.4689931 C192.384809,40.1689264 190.414993,32.427206 186.405366,28.7663925 C188.365184,26.9159813 192.37481,23.2551678 191.034935,14.9333185 C190.944943,14.3931985 190.454989,14.0231162 189.915039,14.0831296 L184.635531,14.6732607 C184.355557,14.7032674 184.105581,14.8533007 183.935597,15.0733496 C183.765612,15.2933985 183.695619,15.5734608 183.745614,15.853523 C183.755613,15.9335408 184.835513,21.9448766 180.745894,25.555679 L180.845884,15.3034008 C180.845884,15.0133363 180.725896,14.7332741 180.505916,14.5332296 C180.285937,14.3431874 179.995964,14.2431651 179.705991,14.283174 L174.426483,14.8733052 C173.896532,14.9333185 173.506568,15.3834185 173.516379,15.9135363 L174.13651,41.5792398 C174.146509,41.8593021 174.266497,42.1393643 174.486477,42.3194043 C174.686458,42.4894421 174.936435,42.5794621 175.196411,42.5694599 C175.226408,42.5694599 175.246406,42.5694599 175.276403,42.5594577 L179.735988,42.0593465 C180.235941,41.9993332 180.615906,41.5992443 180.645903,41.0991331 L181.015869,33.0773505 C182.415738,34.537675 184.785517,38.2685041 185.165482,41.3991998 C185.235475,41.9593243 185.735429,42.349411 186.295377,42.2893976 L191.564886,41.6992665 C191.854859,41.6692598 192.114834,41.5092243 192.284819,41.2791731 C192.464802,41.049122 192.514797,40.7490553 192.454803,40.4689931 Z M241.190262,30.7768393 L242.570133,21.1446988 L236.800671,9.06201378 L232.881036,10.4023116 L227.771512,4.92109358 L218.742353,0 L216.762538,7.30162258 L215.362668,3.47077128 L208.423315,10.2522783 L204.543676,17.0337853 L204.373692,24.0653479 L201.643947,22.7650589 L203.503773,34.0275617 L207.733379,41.2791731 L217.70245,44.6999333 L225.871689,45 L239.950377,39.8488553 L244,29.8266281 L241.190262,30.7768393 Z M235.100829,25.4256501 L227.121573,25.645699 L226.8316,34.627695 L226.40164,39.9488775 L219.442288,39.878862 L219.442288,34.7777284 L218.872341,25.8657479 L210.533118,26.225828 L210.243145,17.603912 L222.532,17.5338964 L235.250815,17.1738164 L235.470795,18.324072 L235.100829,25.4256501 Z"/></svg>