<svg xmlns="http://www.w3.org/2000/svg" width="207" height="50" viewBox="0 0 207 50"><g fill="none"><path fill="#FFF" d="M194.716853,14.396876 L198.653563,14.396876 L198.653563,28.5970655 L207,28.5970655 L207,32.1546501 L194.716853,32.1546501 L194.716853,14.396876 Z M187.49955,32.1546501 L191.43626,32.1546501 L191.43626,14.396876 L187.49955,14.396876 L187.49955,32.1546501 Z M170.364178,29.4563126 C172.515636,31.355701 175.24692,32.2903207 177.962945,32.2903207 C181.823362,32.2903207 184.539388,30.3155598 184.539388,26.7881242 L184.539388,26.7429006 C184.539388,23.6526258 182.494739,22.3562179 178.8632,21.4215982 C175.765711,20.6377236 175.002782,20.2608608 175.002782,19.085049 L175.002782,19.0398254 C175.002782,18.1805783 175.796228,17.4871508 177.306826,17.4871508 C178.817425,17.4871508 180.373799,18.1504293 181.96069,19.2357941 L184.005338,16.2962644 C182.189568,14.8491113 179.961817,14.0350877 177.352602,14.0350877 C174.743387,14.0350877 171.08133,16.1605938 171.08133,19.3865392 L171.08133,19.4317627 C171.08133,22.9591983 173.400633,23.9541161 177.016913,24.8585867 C180.007593,25.6123123 180.617936,26.1248457 180.617936,27.1197634 L180.617936,27.1649869 C180.617936,28.2051282 179.641387,28.8382577 178.039238,28.8382577 C176.437088,28.8382577 174.300888,27.994085 172.698739,26.6826026 L170.379436,29.4412381 M169.570732,32.2149482 L161.895672,14.3365779 L158.264133,14.3365779 L150.589073,32.2149482 L154.602077,32.2149482 L160.018869,19.0247509 L162.368688,24.7530652 L159.210164,24.7530652 L157.806376,28.1900537 L163.772476,28.1900537 L165.420402,32.2149482 L169.540215,32.2149482 L169.570732,32.2149482 Z M122.452274,14.396876 C128.082685,14.396876 131.958362,18.2258018 131.958362,23.2305395 L131.958362,23.2757631 C131.958362,28.2654262 128.067427,32.1546501 122.452274,32.1546501 L116.303071,32.1546501 L116.303071,14.396876 L122.452274,14.396876 M127.853807,23.2757631 C127.853807,20.1251902 125.68709,17.9243116 122.452274,17.9243116 L120.239781,17.9243116 L120.239781,28.6272145 L122.452274,28.6272145 C125.671832,28.6272145 127.853807,26.4715594 127.853807,23.3209866 L127.853807,23.2757631 Z M107.514135,22.9139748 L107.514135,25.9741006 L109.375681,25.9741006 L109.375681,27.8584144 C108.383874,28.5669165 107.102154,28.9287047 105.667849,28.9287047 C102.494066,28.9287047 100.251057,26.546932 100.251057,23.2908376 L100.251057,23.245614 C100.251057,20.2307118 102.524584,17.7132684 105.393194,17.7132684 C108.261805,17.7132684 108.689045,18.3765469 110.077575,19.5071353 L112.564721,16.5374566 C110.703176,14.9697074 108.750079,14.0953858 105.530522,14.0953858 C100.11373,14.0953858 96.1465021,18.2258018 96.1465021,23.2757631 L96.1465021,23.3209866 C96.1465021,28.5669165 99.9764027,32.4561404 105.561039,32.4561404 C111.145675,32.4561404 111.359295,31.1898814 113.205581,29.6372068 L113.205581,22.8989003 L107.544653,22.8989003 L107.514135,22.9139748 Z M87.8610995,22.9139748 L87.8610995,25.9741006 L89.7226449,25.9741006 L89.7226449,27.8584144 C88.7308379,28.5669165 87.4491182,28.9287047 86.0148128,28.9287047 C82.8410306,28.9287047 80.5980211,26.546932 80.5980211,23.2908376 L80.5980211,23.245614 C80.5980211,20.2307118 82.8715477,17.7132684 85.7401586,17.7132684 C88.6087694,17.7132684 89.0360093,18.3765469 90.424539,19.5071353 L92.9116856,16.5374566 C91.0501403,14.9697074 89.0970436,14.0953858 85.8774857,14.0953858 C80.460694,14.0953858 76.4934662,18.2258018 76.4934662,23.2757631 L76.4934662,23.3209866 C76.4934662,28.5669165 80.3233669,32.4561404 85.9080028,32.4561404 C91.4926388,32.4561404 91.7062587,31.1898814 93.5525455,29.6372068 L93.5525455,22.8989003 L87.8916167,22.8989003 L87.8610995,22.9139748 Z M66.0871227,32.1546501 L70.0238333,32.1546501 L70.0238333,26.4263359 L76.9054476,14.396876 L72.4346871,14.396876 L68.0859952,22.2959198 L63.8135961,14.396876 L59.2055085,14.396876 L66.0871227,26.5017084 L66.0871227,32.1546501 L66.0871227,32.1546501 Z M145.004437,25.8082809 C147.277964,24.9641083 148.834338,23.1702415 148.834338,20.3060844 L148.834338,20.2608608 C148.834338,18.5875901 148.300288,17.1856606 147.293223,16.2058173 C146.118313,15.04508 144.348319,14.4119505 142.074792,14.4119505 L134.491284,14.4119505 L134.491284,32.1697246 L138.427995,32.1697246 L138.427995,17.9243116 L141.754362,17.9243116 C143.676942,17.9243116 144.851852,18.7835587 144.851852,20.4568295 L144.851852,20.502053 C144.851852,21.9944296 143.753235,23.0194964 141.830655,23.0194964 L139.892817,23.0194964 L139.892817,26.4715594 L140.9304,26.4715594 L144.7603,32.1546501 L149.368388,32.1546501 L144.989179,25.8082809 L145.004437,25.8082809 Z"/><path fill="#F26739" d="M49.9957627,26.4613978 C49.8741555,28.442954 49.5245348,30.4092676 48.9164988,32.3450956 C39.4615385,31.7811142 31.0250385,27.4979041 24.9902809,20.9435256 C18.9707242,27.4979041 10.5190233,31.7811142 1.07926396,32.3450956 C0.486428825,30.4397531 0.121607206,28.4581968 0,26.4613978 C3.16178737,26.3546986 6.20196752,25.7297462 9.04453597,24.6932398 C6.53638734,22.6049844 3.61781439,20.9740111 0.440826123,19.9527475 C0.820848643,18.0321622 1.42888467,16.1420623 2.28013512,14.3129335 C7.02281617,15.8372075 11.2790684,18.4589589 14.7448738,21.8580901 C16.857799,20.5167289 18.7883134,18.9009984 20.4908143,17.0718695 C14.6536684,16.0506059 9.4853621,13.108757 5.669936,8.90176054 C6.94681166,7.34700099 8.39089724,5.97515433 9.94138912,4.8014633 C12.1911224,7.31651551 15.0488918,9.25234357 18.2866837,10.3955491 C17.1314152,7.59088484 16.3257675,4.58806493 15.9153431,1.4633031 C17.7850539,0.762137032 19.7307692,0.274369332 21.6916854,0 C22.1021098,3.87165612 23.2421773,7.51467114 24.9902809,10.7918604 C26.7383845,7.51467114 27.8784521,3.87165612 28.2888764,0 C30.2497926,0.259126591 32.180307,0.746894292 34.0652187,1.49378858 C33.6547944,4.61855042 32.8491466,7.60612758 31.6938782,10.4260346 C34.93167,9.28282905 37.7894394,7.34700099 40.0391727,4.83194878 C41.6504682,6.05136804 43.0793529,7.42321469 44.3106258,8.91700328 C40.4951997,13.1239997 35.3268934,16.0810914 29.4897475,17.102355 C31.1922484,18.9314839 33.1227628,20.5319716 35.235688,21.8885756 C38.7166943,18.4742017 42.9729465,15.867693 47.7004267,14.3434189 C48.5364762,16.1420623 49.1445123,18.0474049 49.5397357,19.983233 C46.3627474,21.0044966 43.4441745,22.6354699 40.9360258,24.7237253 C43.7785943,25.7602317 46.8187744,26.3699413 49.9805618,26.4918832 L49.9957627,26.4613978 Z M27.9544566,49.8285192 L27.9544566,41.3992836 L36.4517601,30.3025684 C34.627652,29.4947031 32.8643475,28.5344105 31.1922484,27.4369332 L25.0054818,35.5155857 L18.8187152,27.4369332 C17.1466161,28.5344105 15.3833116,29.4947031 13.5592035,30.3025684 L22.0565071,41.3992836 L22.0565071,49.8285192 C24.0326242,50.0571603 26.0087413,50.0571603 27.9696575,49.8285192 L27.9544566,49.8285192 Z"/></g></svg>