<svg width="271px" height="45px" viewBox="0 0 271 45" xmlns="http://www.w3.org/2000/svg"><g id="prefix__Published" stroke="none" stroke-width="1" fill="none" fill-rule="evenodd"><g id="prefix__1.1-|-Logos-Batch-02" transform="translate(-1340, -466)" fill="color(display-p3 0.000 0.953 0.694)"><g id="prefix__Originals-Logo" transform="translate(1340, 466)"><g id="prefix__American_Logo" transform="translate(0.3529, 0)" fill-rule="nonzero"><path d="m77.724 24.624 8.845 12.16h-5.273l-8.16-11.68h-.778v11.68h-4.31V8.25h5.05c3.775 0 6.501.708 8.179 2.125 1.85 1.577 2.776 3.659 2.776 6.246 0 2.02-.58 3.757-1.74 5.211-1.16 1.454-2.689 2.384-4.589 2.79Zm-5.366-3.271h1.37c4.083 0 6.124-1.559 6.124-4.676 0-2.92-1.986-4.38-5.958-4.38h-1.536v9.056ZM95.173 8.25v28.532h-4.311V8.251h4.311Zm21.556 13.675h11.805v.942c0 2.144-.252 4.041-.758 5.692-.494 1.527-1.326 2.957-2.498 4.287-2.652 2.982-6.026 4.472-10.121 4.472-3.997 0-7.42-1.441-10.27-4.324-2.85-2.895-4.274-6.37-4.274-10.423 0-4.139 1.45-7.65 4.348-10.533 2.9-2.895 6.427-4.343 10.584-4.343 2.233 0 4.318.456 6.254 1.368 1.85.911 3.67 2.39 5.459 4.435l-3.072 2.938c-2.344-3.117-5.2-4.675-8.567-4.675-2.96 0-5.453.999-7.479 2.997l-.126.126c-2.047 2.045-3.071 4.607-3.071 7.687 0 3.179 1.14 5.797 3.423 7.854 2.134 1.91 4.447 2.865 6.939 2.865 2.121 0 4.027-.715 5.717-2.144 1.69-1.441 2.634-3.166 2.831-5.174h-7.124v-4.047ZM138.267 8.25v28.532h-4.311V8.251h4.311Zm6.865 28.532V6.31l20.835 21.77V8.25h4.31v30.27l-20.834-21.713v19.976h-4.311Zm48.997-6.93h-12.231l-3.183 6.93h-4.644l14.137-30.325 13.636 30.325h-4.718l-2.997-6.93Zm-1.758-4.047-4.237-9.701-4.441 9.701h8.678Zm17.356-17.555v24.485h8.4v4.047h-12.711V8.251h4.31Zm28.754 4.25-3.497 2.07c-.628-1.088-1.227-1.813-1.798-2.175l-.071-.043c-.617-.394-1.412-.591-2.387-.591-1.196 0-2.19.339-2.979 1.016-.79.665-1.184 1.503-1.184 2.513 0 1.393 1.036 2.514 3.108 3.364l2.85 1.164c2.319.936 4.015 2.079 5.088 3.428 1.074 1.349 1.61 3.003 1.61 4.962 0 2.624-.876 4.792-2.627 6.505-1.764 1.724-3.954 2.587-6.569 2.587-2.48 0-4.527-.733-6.143-2.2-1.591-1.465-2.584-3.529-2.98-6.19l4.368-.961c.19 1.62.52 2.756.987 3.408l.049.066c.888 1.232 2.183 1.848 3.885 1.848 1.345 0 2.461-.45 3.35-1.349.888-.9 1.332-2.039 1.332-3.419 0-.554-.077-1.062-.231-1.524a3.867 3.867 0 0 0-.722-1.275 5.766 5.766 0 0 0-1.268-1.09 12.216 12.216 0 0 0-1.85-.97l-2.757-1.146c-3.91-1.651-5.865-4.066-5.865-7.245 0-2.143.82-3.936 2.46-5.377 1.641-1.454 3.683-2.18 6.125-2.18 3.294 0 5.866 1.6 7.716 4.804Z" id="prefix__RIGINALS"/><path d="M39.458 0c12.538 0 22.66 9.522 22.66 22.5 0 12.913-10.057 22.5-22.66 22.5-9.088 0-16.853-4.986-20.476-12.61h5.685c3.16 4.863 8.597 8.045 14.791 8.045 9.795 0 17.697-7.957 17.697-17.935 0-9.978-7.902-17.935-17.697-17.935-9.795 0-17.696 7.957-17.696 17.935 0 .143.001.286.005.429h-4.964a24.762 24.762 0 0 1-.004-.429C16.799 9.522 26.92 0 39.459 0Z" id="prefix__Combined-Shape"/><path id="prefix__Rectangle" d="M0 25.294h40.94v4.731H0zM242.594 25.294H270v4.731h-27.406z"/></g></g></g></g></svg>