<svg xmlns="http://www.w3.org/2000/svg" width="202" height="46" viewBox="0 0 202 46"><g fill="none" fill-rule="evenodd" transform="translate(.001)"><path fill="#0083C3" d="M108.398359,7.33614253 C107.984592,8.2079449 107.628751,9.11666816 107.336408,10.0582111 L100.238277,32.9190582 C99.8596322,34.1385548 99.6670712,35.4080293 99.6670712,36.6847826 C99.6670712,37.0140788 99.6796063,37.3404518 99.7042259,37.6634519 L7.33695652,37.6630435 C3.28486732,37.6630435 -1.46549439e-13,34.3781762 -1.46549439e-13,30.326087 C-1.46549439e-13,29.5602709 0.119896962,28.7991762 0.355335681,28.0704493 L4.86504714,14.1120483 C6.16982576,10.0735143 9.92979619,7.33695652 14.1738749,7.33695652 Z M194.661637,7.33695652 C198.713726,7.33695652 201.998594,10.6218238 201.998594,14.673913 C201.998594,15.4397291 201.878697,16.2008238 201.643258,16.9295507 L197.79022,28.8554242 C196.094008,34.1055184 191.206046,37.6630435 185.688744,37.6630435 L179.437357,37.6637489 C179.989838,36.5819088 180.455839,35.4425482 180.825123,34.2531991 L187.906294,11.4469758 C188.270376,10.274383 188.455531,9.05373439 188.455531,7.82608696 C188.455531,7.66216422 188.4523,7.49899483 188.4459,7.33663879 L194.661637,7.33695652 Z"/><path fill="#FF1323" d="M149.122864,0 L145.629941,11.25 L123.094955,11.25 L116.260486,33.2608696 L127.283033,33.2608696 L129.257294,26.9021739 L123.88319,26.9021739 L126.822536,17.6086957 L143.655681,17.6086957 L138.676364,33.6451463 C136.57962,40.3979465 130.331891,45 123.26106,45 L112.391888,45 C107.799521,45 104.076671,41.2771504 104.076671,36.6847826 C104.076671,35.8487566 104.20275,35.017511 104.450655,34.219086 L111.549807,11.3549521 C113.646519,4.6021022 119.894273,0 126.965142,0 L149.122864,0 Z M176.219878,3.55271368e-15 C180.542107,2.66453526e-15 184.045965,3.50385848 184.045965,7.82608696 C184.045965,8.61293493 183.927303,9.3952838 183.69398,10.1467426 L176.611597,32.956869 C174.387812,40.1189825 167.761406,45 160.262,45 L150.113496,45 C145.521128,45 141.798278,41.2771504 141.798278,36.6847826 C141.798278,35.8487566 141.924358,35.017511 142.172263,34.219086 L149.271415,11.3549521 C151.368127,4.6021022 157.61588,0 164.686749,0 L176.219878,3.55271368e-15 Z M171.83911,11.25 L160.816563,11.25 L153.982093,33.2608696 L165.004641,33.2608696 L171.83911,11.25 Z"/><path fill="#FFF" d="M25.5427511,13.2065217 C27.4337261,13.2065217 28.9666642,14.7394598 28.9666642,16.6304348 C28.9666642,16.9736072 28.9150725,17.3148297 28.8136188,17.6426627 L27.5473961,21.7342773 C26.5964673,24.8070659 23.7549599,26.9021739 20.5383941,26.9021739 L16.6406598,26.9021739 L15.1273864,31.7934783 L10.2284764,31.7934783 L15.979622,13.2065217 L25.5427511,13.2065217 Z M37.0449353,13.2065217 L32.8070629,26.9021739 L37.216082,26.9021739 L38.6392154,22.3028804 L43.5381254,22.3028804 L40.6017187,31.7934783 L26.3948796,31.7934783 L32.1460252,13.2065217 L37.0449353,13.2065217 Z M58.5391323,13.2065217 C60.159968,13.2065217 61.4739149,14.5204687 61.4739149,16.1413043 C61.4739149,16.4354078 61.4297068,16.7278407 61.3427722,17.008802 L56.7681219,31.7934783 L51.8692119,31.7934783 L53.6852378,25.923913 L49.2762188,25.923913 L47.4601928,31.7934783 L42.5612828,31.7934783 L46.8198979,18.0301866 C47.707336,15.1621017 50.3594824,13.2065217 53.3617244,13.2065217 L58.5391323,13.2065217 Z M23.925339,17.6086957 L19.51632,17.6086957 L18.0030466,22.5 L22.4115758,22.5 L23.925339,17.6086957 Z M56.2581454,17.6086957 L51.8491263,17.6086957 L50.335853,22.5 L54.7448721,22.5 L56.2581454,17.6086957 Z M69.3777416,13.2065217 L66.5021688,22.5 L71.4010789,22.5 L74.2766517,13.2065217 L79.1755618,13.2065217 L76.3102802,22.4667401 C75.4753642,25.1650801 73.0304937,27.0309361 70.2271208,27.1415405 L69.9632925,27.1467391 L69.9693591,27.1255217 L68.5255061,31.7934783 L63.626596,31.7934783 L65.0633591,27.1465217 L64.8799004,27.1415927 C63.170241,27.0459533 61.8133591,25.629293 61.8133591,23.8957158 C61.8133591,23.5699209 61.8623309,23.2459766 61.9586332,22.93474 L64.9687226,13.2065217 L69.3777416,13.2065217 Z M96.2926264,17.8532609 C97.913462,17.8532609 99.227409,19.1672078 99.227409,20.7880435 C99.227409,21.082147 99.1832009,21.3745799 99.0962663,21.6555411 L95.9594024,31.7934783 L91.0604923,31.7934783 L93.9360651,22.5 L89.5270461,22.5 L86.6514733,31.7934783 L81.7525632,31.7934783 L84.573392,22.6769257 C85.4608301,19.8088409 88.1129764,17.8532609 91.1152184,17.8532609 L96.2926264,17.8532609 Z M86.5239268,13.2065217 L84.8899309,18.4875217 L79.9909309,18.4876754 L81.6250168,13.2065217 L86.5239268,13.2065217 Z"/></g></svg>