<svg width="222px" height="50px" viewBox="0 0 222 50" xmlns="http://www.w3.org/2000/svg"><defs><linearGradient x1="74.2851891%" y1="1.80960383%" x2="30.5689374%" y2="92.603706%" id="prefix__linearGradient-1"><stop stop-color="color(display-p3 0.784 0.165 0.169)" stop-opacity="0" offset="0%"/><stop stop-color="color(display-p3 0.784 0.165 0.169)" offset="100%"/></linearGradient></defs><g id="prefix__Published" stroke="none" stroke-width="1" fill="none" fill-rule="evenodd"><g id="prefix__1.1-|-Logos-Batch-02" transform="translate(-359, -70)"><g id="prefix__4ThePlayer-Logo" transform="translate(359, 70)"><g id="prefix__Logo" transform="translate(0, 0)"><path d="m27.187 8.875 2.536 2.536v13.22h5.129v4.478h-5.129v5.175l-5.372 5.373V29.109h-9.38l-4.01-4.01L27.188 8.876Zm-2.59 9.83-6.045 6.046h6.045v-6.045Z" id="prefix__Combined-Shape" fill="color(display-p3 1.000 1.000 1.000)"/><path d="m27.703 44.221 10.315 4.497-.326-2.55c10.052-5.158 13.728-14.494 11.027-28.01-.807 9.447-4.747 16.103-11.82 19.969v-2.705l-9.196 8.799Z" id="prefix__Path" fill="url(#prefix__linearGradient-1)"/><path d="m5.352 49.846 10.314 4.497-.325-2.551c10.052-5.157 13.727-14.493 11.027-28.009-.807 9.447-4.748 16.103-11.821 19.969v-2.706l-9.195 8.8Z" id="prefix__Path" fill="url(#prefix__linearGradient-1)" transform="translate(16.2887, 39.063) rotate(90) translate(-16.2887, -39.063)"/><path d="m0 27.344 10.315 4.498-.326-2.551C20.04 24.134 23.717 14.797 21.016 1.28c-.807 9.448-4.747 16.104-11.82 19.97v-2.706L0 27.345Z" id="prefix__Path" fill="url(#prefix__linearGradient-1)" transform="translate(10.937, 16.5617) rotate(180) translate(-10.937, -16.5617)"/><path d="m22.351 21.72 10.315 4.497-.326-2.551C42.392 18.509 46.068 9.173 43.367-4.343c-.807 9.447-4.747 16.103-11.82 19.969V12.92l-9.196 8.8Z" id="prefix__Path" fill="url(#prefix__linearGradient-1)" transform="translate(33.2883, 10.937) rotate(270) translate(-33.2883, -10.937)"/></g><path d="M194.763 39.04c1.65 0 3.116.789 4.036 2.008h-1.07a4.234 4.234 0 0 0-2.966-1.204c-2.34 0-4.237 1.888-4.237 4.216 0 2.33 1.897 4.217 4.237 4.217 1.154 0 2.2-.459 2.965-1.203h1.07a5.044 5.044 0 0 1-4.035 2.007c-2.785 0-5.044-2.248-5.044-5.02 0-2.773 2.259-5.02 5.044-5.02Zm-7.061 10.242a1.009 1.009 0 1 0 0-2.017 1.009 1.009 0 0 0 0 2.017Zm24.847-10.189.566 1.242 2.995 6.575 3.14-6.581.558-1.17.204 1.28 1.37 8.578-.797.127-1.166-7.3-2.952 6.195-.373.781-.359-.788-2.789-6.12-1.073 7.228-.798-.119 1.273-8.578.2-1.35Zm-7.692-.053c2.79 0 5.05 2.248 5.05 5.02 0 2.773-2.26 5.02-5.05 5.02-2.789 0-5.05-2.247-5.05-5.02 0-2.772 2.261-5.02 5.05-5.02Zm0 .807c-2.344 0-4.243 1.888-4.243 4.213 0 2.326 1.899 4.214 4.243 4.214 2.345 0 4.243-1.888 4.243-4.214 0-2.325-1.898-4.213-4.243-4.213Z" id="prefix__Combined-Shape" fill="color(display-p3 1.000 1.000 1.000)" fill-rule="nonzero"/><path d="M120.266 14.003c3.432 0 8.586 1.167 8.586 7.13 0 5.962-4.22 7.163-8.586 7.163h-2.59v7.506h-4.69v-21.8Zm.71 4.446h-3.452V24.5h3.451a3.026 3.026 0 1 0 0-6.052Zm10.672-4.446v21.799h11.76v-3.906h-7.438V14.003h-4.322Zm24.716 0 9.793 21.799h-4.93l-1.837-3.874h-6.052l-1.837 3.874h-4.93l9.793-21.8Zm13.183 0 4.867 8.675 4.918-8.675h5.212l-7.947 13.446v8.353h-4.52v-8.353l-7.794-13.446h5.264Zm-13.183 8.5-2.267 5.59h4.535l-2.268-5.59Zm31.106-8.5v21.799h13.229v-4.256h-9.027v-5.115h8.062v-3.955h-8.062v-4.042h8.575v-4.431H187.47Zm26.547 0c4.008 0 6.908 2.895 6.908 6.597 0 3.703-2.41 6.318-5.66 6.318l6.429 8.884h-5.878l-6.18-8.166v8.166h-4.38v-21.8h8.761Zm-.43 4.476h-3.855v5.34h3.854a2.67 2.67 0 0 0 0-5.34ZM108.95 35.793H95.85v-21.79h12.283v1.281H97.49v8.436h10.642v1.442H97.49v9.136h11.46v1.495Zm-34.574-21.79v21.79h1.679v-10.56h12.19v10.56h2.033v-21.79h-2.033v9.66h-12.19v-9.66h-1.679Zm-14.527 21.79h1.858V15.667h7.421v-1.664h-16.67v1.664h7.39v20.126Z" id="prefix__Combined-Shape" fill="color(display-p3 1.000 1.000 1.000)"/></g></g></g></svg>