<svg width="308px" height="54px" viewBox="0 0 308 54" xmlns="http://www.w3.org/2000/svg"><g id="prefix__Published" stroke="none" stroke-width="1" fill="none" fill-rule="evenodd"><g id="prefix__1.1-|-Logos" transform="translate(-925, -56)" fill="color(display-p3 1.000 1.000 1.000)"><g id="prefix__BigTimeGaming-V2-Logo" transform="translate(925, 56)"><path d="M26.754 0C41.53 0 53.51 12.088 53.51 27S41.53 54 26.754 54 0 41.912 0 27 11.978 0 26.754 0Zm0 1.209C12.64 1.209 1.198 12.756 1.198 27S12.64 52.791 26.754 52.791c14.115 0 25.557-11.547 25.557-25.791S40.869 1.209 26.754 1.209ZM12.17 46.689c.86.015 1.867.112 3.014.298 1.517.247 3.572 1.223 6.564 3.047l1.136.704 1.082.686a24.113 24.113 0 0 1-11.596-4.585l-.2-.15Zm7.868-3.651.81.218.91.266c.464.143 1.05.334 1.983.642l3.082 1.027c4.47 1.491 7.225 2.263 10.185 2.722.728.113 1.44.2 2.137.257a24.094 24.094 0 0 1-7.342 2.884l-.375-.204a53.734 53.734 0 0 1-2.304-1.39l-4.157-2.635-.232-.145C20.88 44.283 18.27 43 15.88 42.61a29.533 29.533 0 0 0-1.975-.256 20.846 20.846 0 0 1 6.131.684Zm-1.29-2.351.431.024c1.335.09 3.068.323 6.215.794l2.419.364c3.283.487 5.465.74 7.777.862 4.152.22 7.708-.115 10.786-1.16a24.643 24.643 0 0 1-4.445 4.659c-1.455.051-2.988-.055-4.62-.308l-.603-.099c-2.607-.45-5.2-1.191-9.258-2.545l-3.954-1.314c-.609-.2-1.031-.333-1.396-.443l-.485-.141-1.065-.29a22.56 22.56 0 0 0-1.802-.403Zm8.007-38.27c13.453 0 24.359 11.007 24.359 24.583a24.63 24.63 0 0 1-3.942 13.412c-3.202 1.317-6.994 1.756-11.54 1.515l-.62-.037c-2.168-.139-4.327-.404-7.538-.886l-2.883-.433-1.983-.285c-1.912-.265-3.09-.386-4.129-.417l-.475-.008h-.3l-.528.012-.31.013c-2.882.129-5.316.448-7.303.96-.828.166-1.664.37-2.508.615A24.622 24.622 0 0 1 2.396 27c0-13.576 10.906-24.582 24.358-24.582ZM39.29 17.732c-5.404 0-9.341 4.42-9.341 9.873 0 5.453 2.532 10.048 9.071 10.048 2.817 0 5.202-.855 6.938-2.247v-9.318h-6.549v3.646h2.538v3.548c-1.13.608-2.41.802-3.843.58-2.15-.33-4.01-2.844-4.01-6.202s1.712-5.696 4.351-6.133c1.76-.291 3.45.226 5.073 1.551l1.815-3.39c-1.7-1.191-3.437-1.956-6.043-1.956Zm-3.965-.001H18.852c1.697.768 2.757 2.1 3.159 4.03h2.347v15.718h3.994V21.76l2.385-.001c1.086-1.796 2.674-3.207 4.588-4.03Zm-20.944.008c-2.65 0-4.782 1.037-6.395 3.112v14.398c1.542 1.33 3.89 1.996 7.046 1.996 4.734 0 7.504-1.834 7.504-5.552 0-2.478-1.05-4.228-3.151-5.248 1.63-1.085 2.244-2.59 1.845-4.515-.6-2.887-2.873-4.191-6.849-4.191Zm.723 10.674c1.382 0 2.977.75 2.977 2.64 0 1.89-1.138 2.626-2.56 2.676l-.496-.002-.338-.007a9.713 9.713 0 0 1-.51-.026 4.855 4.855 0 0 1-1.708-.474v-4.807h2.635Zm-.212-6.993c1.044 0 2.094.854 2.094 1.908a1.9 1.9 0 0 1-1.891 1.908h-2.626v-1.537c0-1.433.648-2.279 2.258-2.279h.165Zm-6.437-6.635.064 1.297-1.184.51 1.243.34.115 1.294.703-1.088 1.256.29-.808-1.012.66-1.115-1.203.463-.846-.98Zm36.6 0-.847.979-1.203-.463.66 1.115-.808 1.011 1.255-.29.704 1.089.115-1.294 1.243-.34-1.184-.51.064-1.297ZM26.754 2.82l-1.64 4.774-5.007.099 3.992 3.05-1.453 4.835 4.107-2.89 4.108 2.89-1.454-4.836 3.992-3.05-5.005-.098-1.64-4.774ZM15.982 9.09l-.481 2.258-2.266.327 1.98 1.16-.393 2.275 1.705-1.542 2.023 1.08-.927-2.112 1.643-1.608-2.276.236-1.008-2.074Zm21.543 0-1.008 2.074-2.277-.236 1.643 1.608-.926 2.112 2.023-1.08 1.704 1.542-.392-2.276 1.98-1.16-2.266-.326-.481-2.258Z" id="prefix__Shape"/><path d="m304.518 17.386 2.546 2.546-1.33 1.328c.74 1.018 1.166 2.213 1.166 3.49 0 3.728-3.626 6.75-8.1 6.75-.684 0-1.348-.07-1.982-.204-1.91 2.29.264 2.246 3.152 1.853 3.245-.442 7.728.616 7.728 4.405 0 3.79-3.498 5.903-8.188 5.903-3.126 0-5.766-.763-7.918-2.29l1.411-2.636c8.628 3.133 10.383.442 10.383-.67s-1.305-2.32-5.667-1.861c-4.362.459-6.127-.586-6.127-2.235s.803-2.073 1.641-3.129c.177-.223.311-.452.403-.687-1.794-1.238-2.936-3.107-2.936-5.199 0-3.728 3.626-6.75 8.1-6.75 1.518 0 2.938.348 4.152.953l1.566-1.567ZM298.8 21.15a3.6 3.6 0 1 0 0 7.2 3.6 3.6 0 0 0 0-7.2Zm-86.4 2.25v10.177c-2.388 2.066-5.542 3.323-9 3.323-7.456 0-13.5-5.843-13.5-13.05 0-7.207 6.044-13.05 13.5-13.05 3.15 0 6.049 1.043 8.345 2.792l-3.163 3.34c-1.405-1.3-3.211-2.082-5.182-2.082-4.474 0-8.1 4.03-8.1 9s3.626 9 8.1 9c1.666 0 3.214-.559 4.501-1.516L207.9 26.1h-3.6v-2.7h8.1Zm3.577-4.46c2.667-.927 4.999-1.28 6.995-1.063 2.994.328 5.667 2.779 5.667 6.873l.446 8.216a1.22 1.22 0 0 0 1.217 1.153V36h-1.37a3.597 3.597 0 0 1-3.02-1.638A6.994 6.994 0 0 1 221.4 36h-2.25a5.85 5.85 0 1 1 0-11.7h6.066c-.406-3.126-1.848-3.433-3.816-3.645-1.557-.167-3.184.045-4.88.638ZM225 27.45h-4.5a2.7 2.7 0 1 0 0 5.4h.9a3.6 3.6 0 0 0 3.6-3.6v-1.8Zm27.45-9.9c4.512 0 8.1 3.864 8.1 8.55V36h-4.5v-9.9c0-2.272-1.65-4.05-3.6-4.05-1.889 0-3.497 1.668-3.595 3.838l-.005.212V36h-4.5v-9.9c0-2.272-1.65-4.05-3.6-4.05-1.95 0-3.6 1.778-3.6 4.05V36l-.013-.001-4.5.001V18h3.6l.314.784a7.743 7.743 0 0 1 4.199-1.234c2.312 0 4.382 1.015 5.85 2.635 1.468-1.62 3.538-2.635 5.85-2.635Zm15.75.45v18h-4.5l-.001-14.4H261.9V18h6.3Zm-6.3-6.3h6.3v3.6h-6.3Zm18.45 5.85c4.512 0 8.1 3.864 8.1 8.55V36h-4.5v-9.9c0-2.272-1.65-4.05-3.6-4.05-1.95 0-3.6 1.778-3.6 4.05V36l-.013-.001-4.5.001V18h3.6l.314.784a7.743 7.743 0 0 1 4.199-1.234Zm-176.532-.164 2.546 2.546-1.33 1.328c.74 1.018 1.166 2.213 1.166 3.49 0 3.728-3.626 6.75-8.1 6.75-.684 0-1.348-.07-1.982-.204-1.91 2.29.264 2.246 3.152 1.853 3.245-.442 7.728.616 7.728 4.405 0 3.79-3.498 5.903-8.188 5.903-3.126 0-5.766-.763-7.918-2.29l1.411-2.636c8.628 3.133 10.383.442 10.383-.67S101.38 35.54 97.019 36c-4.362.459-6.127-.586-6.127-2.235s.803-2.073 1.641-3.129c.177-.223.311-.452.403-.687C91.142 28.711 90 26.842 90 24.75c0-3.728 3.626-6.75 8.1-6.75 1.518 0 2.938.348 4.152.953l1.566-1.567ZM98.1 21.15a3.6 3.6 0 1 0 0 7.2 3.6 3.6 0 0 0 0-7.2ZM87.3 18v18h-4.5l-.001-14.4H81V18h6.3ZM81 11.7h6.3v3.6H81Zm-18.9 0h9.45a5.85 5.85 0 0 1 3.467 10.562A7.2 7.2 0 0 1 72 36h-9.9V11.7Zm9 12.6h-4.95v8.1h4.95a4.05 4.05 0 0 0 0-8.1Zm-.45-9h-4.5v5.4h4.5a2.7 2.7 0 0 0 0-5.4Zm56.25-3.6v3.6h-5.4V36H117V15.3h-8.1v-3.6h18Zm9 6.3v18h-4.5l-.001-14.4H129.6V18h6.3Zm-6.3-6.3h6.3v3.6h-6.3Zm48.6 5.4c5.468 0 9.9 4.432 9.9 9.9 0 .615-.056 1.216-.163 1.8h-14.98a5.852 5.852 0 0 0 9.808 2.808l1.79 2.983A9.86 9.86 0 0 1 178.2 36.9c-5.468 0-9.9-4.432-9.9-9.9s4.432-9.9 9.9-9.9Zm0 3.6a5.401 5.401 0 0 0-5.325 4.5h10.65a5.401 5.401 0 0 0-5.325-4.5Zm-20.25-3.15c4.512 0 8.1 3.864 8.1 8.55V36h-4.5v-9.9c0-2.272-1.65-4.05-3.6-4.05-1.889 0-3.497 1.668-3.595 3.838l-.005.212V36h-4.5v-9.9c0-2.272-1.65-4.05-3.6-4.05-1.95 0-3.6 1.778-3.6 4.05V36l-.013-.001-4.5.001V18h3.6l.314.784a7.743 7.743 0 0 1 4.199-1.234c2.312 0 4.382 1.015 5.85 2.635 1.468-1.62 3.538-2.635 5.85-2.635Z" id="prefix__Combined-Shape"/></g></g></g></svg>