<svg xmlns="http://www.w3.org/2000/svg" xmlns:xlink="http://www.w3.org/1999/xlink" width="189" height="35" viewBox="0 0 189 35"><defs><radialGradient id="b" cx="94.874%" cy="67.896%" r="154.475%" fx="94.874%" fy="67.896%"><stop offset="0%"/><stop offset="100%" stop-opacity="0"/></radialGradient><radialGradient id="e" cx="92.423%" cy="73.928%" r="208.308%" fx="92.423%" fy="73.928%" gradientTransform="matrix(-.64374 -.75475 .74064 -.656 .972 1.922)"><stop offset="0%"/><stop offset="100%" stop-opacity="0"/></radialGradient><path id="a" d="M0,14.9024681 C6.65342999,18.033789 12.5151147,17.8482151 17.5850541,14.3457462 C22.6549936,10.8432774 25.2862666,6.18702905 25.4788732,0.377001187 C20.0646991,-0.425816442 15.0825289,0.0535558152 10.5323625,1.81511796 C5.98219614,3.5766801 2.47140864,7.93913013 0,14.9024681 Z"/><path id="d" d="M0,2.00533454 C2.76957032,8.95576107 6.18649819,13.2369934 10.2507836,14.8490316 C14.3150691,16.4610699 19.3910989,17.0419448 25.4788732,16.5916565 C24.846155,9.87313211 21.9584285,5.07772408 16.8156935,2.20543246 C11.6729585,-0.666859159 6.06772734,-0.733558465 0,2.00533454 Z"/></defs><g fill="none" fill-rule="evenodd"><path fill="#FFF" fill-rule="nonzero" d="M81.2435226,11.5029116 C87.4784676,11.5029116 91.8699473,15.997507 91.8699473,22.342082 C91.8699473,28.5990594 87.3911784,33.0936548 81.1125887,33.0936548 C74.8755653,33.0936548 70.5734532,28.6866571 70.5734532,22.342082 C70.5734532,15.997507 74.9649329,11.5029116 81.2435226,11.5029116 Z M51.9226542,3.43975349 L51.9226542,8.24302643 L36.2916469,8.24302643 L36.2916469,15.2487554 L46.6977702,15.2487554 L46.6977702,20.0520283 L36.2916469,20.0520283 L36.2916469,27.8961923 L52.4069016,27.8961923 L52.4069016,32.6994652 L30.8028169,32.6994652 L30.8028169,3.43975349 L51.9226542,3.43975349 Z M56.5053388,11.8991869 L61.4226322,26.3966034 L65.9886903,11.8991869 L71.4338756,11.8991869 L63.8812788,32.6973795 L58.8309733,32.6973795 L50.885575,11.8991869 L56.5053388,11.8991869 Z M81.2414443,15.9537082 C78.0366825,15.9537082 76.1038495,18.3334452 76.1038495,22.2982832 L76.1038495,22.4734786 C76.1038495,26.3507189 77.9909596,28.6428582 81.154155,28.6428582 C84.3589168,28.6428582 86.3353944,26.3528045 86.3353944,22.4734786 L86.3353944,22.2982832 C86.3353944,18.3334452 84.4025614,15.9537082 81.2414443,15.9537082 Z M94.3431422,3.04347826 L99.8319722,3.04347826 L99.8319722,32.6973795 L94.3431422,32.6973795 L94.3431422,3.04347826 Z M102.963993,24.3693427 L102.963993,11.8991869 L108.409178,11.8991869 L108.409178,24.0606651 C108.409178,26.8366774 109.72683,28.4676629 112.185477,28.4676629 C115.039003,28.4676629 116.225721,26.044127 116.225721,22.4755642 L116.225721,11.9012725 L121.670906,11.9012725 L121.670906,32.6994652 L116.225721,32.6994652 L116.225721,29.7482576 C115.128371,31.9069147 113.239182,33.0978261 110.562313,33.0978261 C105.861164,33.0936548 102.963993,29.7440862 102.963993,24.3693427 Z M126.646393,27.1891538 L126.646393,16.3061846 L123.703499,16.3061846 L123.703499,11.8991869 L126.646393,11.8991869 L126.646393,7.97814772 L131.958566,4.98105558 L131.958566,11.8991869 L136.042455,11.8991869 L136.042455,16.3061846 L131.914921,16.3061846 L131.914921,26.6614821 C131.914921,27.6751124 132.39709,28.1151865 133.407151,28.1589853 L135.822153,28.1589853 L135.822153,32.6973795 L131.607331,32.6973795 C127.610731,32.4762997 126.733682,30.62632 126.646393,27.1891538 Z M138.51565,3.52735118 L144.179058,3.52735118 L144.179058,8.85829587 L138.51565,8.85829587 L138.51565,3.52735118 Z M138.605017,11.8991869 L144.093847,11.8991869 L144.093847,32.6973795 L138.605017,32.6973795 L138.605017,11.8991869 Z M146.567042,22.342082 C146.567042,15.997507 150.958522,11.5029116 157.237111,11.5029116 C163.472057,11.5029116 167.863536,15.997507 167.863536,22.342082 C167.863536,28.5990594 163.384767,33.0936548 157.106178,33.0936548 C150.871233,33.0936548 146.567042,28.6866571 146.567042,22.342082 Z M162.331062,22.4734786 L162.331062,22.2982832 C162.331062,18.3334452 160.398229,15.9537082 157.237111,15.9537082 C154.03235,15.9537082 152.099517,18.3334452 152.099517,22.2982832 L152.099517,22.4734786 C152.099517,26.3507189 153.986627,28.6428582 157.147744,28.6428582 C160.354584,28.6428582 162.331062,26.3528045 162.331062,22.4734786 Z M170.293086,11.8991869 L175.738272,11.8991869 L175.738272,15.2925542 C176.835622,12.8690183 178.855744,11.4591128 181.798638,11.4591128 C186.321052,11.4591128 189,14.5000038 189,20.2272237 L189,32.6973795 L183.554815,32.6973795 L183.554815,20.5359012 C183.554815,17.6284924 182.457464,16.1289035 179.911528,16.1289035 C177.31987,16.1289035 175.74035,18.2437619 175.74035,22.1210022 L175.74035,32.6952939 L170.295165,32.6952939 L170.295165,11.8991869 L170.293086,11.8991869 Z"/><g transform="translate(0 17.88)"><mask id="c" fill="#fff"><use xlink:href="#a"/></mask><use xlink:href="#a" fill="#FFF"/><circle cx="5.245" cy="-8.862" r="16.77" fill="url(#b)" mask="url(#c)" transform="rotate(45 5.245 -8.862)"/></g><mask id="f" fill="#fff"><use xlink:href="#d"/></mask><use xlink:href="#d" fill="#FFF"/><ellipse cx="5.245" cy="8.809" fill="url(#e)" mask="url(#f)" rx="16.925" ry="16.608"/></g></svg>