<svg width="152px" height="40px" viewBox="0 0 152 40" xmlns="http://www.w3.org/2000/svg"><g id="prefix__Published" stroke="none" stroke-width="1" fill="none" fill-rule="evenodd"><g id="prefix__1.1-|-Logos" transform="translate(-2058, -265)"><g id="prefix__Netent-Logo" transform="translate(2058, 265)"><path d="M9.174 0H152v30.826A9.174 9.174 0 0 1 142.826 40H0V9.174A9.174 9.174 0 0 1 9.174 0Z" id="prefix__Rectangle" fill="color(display-p3 0.471 0.745 0.125)"/><path d="M24.977 33.057 13.523 15.2a.183.183 0 0 0-.337.099v16.26a1.835 1.835 0 0 1-1.835 1.835H8.059a.367.367 0 0 1-.367-.366V8.44c0-1.013.821-1.834 1.834-1.834h4.304c.125 0 .241.063.309.168l11.528 17.891a.183.183 0 0 0 .338-.1V6.973c0-.202.164-.366.367-.366h5.127V31.56a1.835 1.835 0 0 1-1.835 1.834h-4.069a.734.734 0 0 1-.618-.337ZM51.743 7.54l-1.16 4.069a.183.183 0 0 1-.177.133H40.29a.367.367 0 0 0-.367.367v4.77c0 .203.164.368.367.368h8.907a.183.183 0 0 1 .176.237l-1.392 4.533H40.29a.367.367 0 0 0-.367.367v5.505c0 .203.164.367.367.367h11.6a.367.367 0 0 1 .353.467l-1.028 3.605a1.468 1.468 0 0 1-1.412 1.065H34.429V8.074c0-.811.657-1.468 1.468-1.468h15.14a.734.734 0 0 1 .706.935ZM75.2 7.53l-1.1 4.076a.183.183 0 0 1-.177.136h-6.898v20.184c0 .81-.657 1.467-1.467 1.467h-3.66a.367.367 0 0 1-.366-.366l-.001-21.102a.183.183 0 0 0-.184-.183h-7.886l1.104-4.055a1.468 1.468 0 0 1 1.416-1.082h18.51a.734.734 0 0 1 .71.925Z" id="prefix__Shape" fill="color(display-p3 1.000 1.000 1.000)"/><path d="M114.346 33.057 102.892 15.2a.183.183 0 0 0-.338.099v16.26a1.835 1.835 0 0 1-1.835 1.835h-3.292a.367.367 0 0 1-.367-.366V8.44c0-1.013.822-1.834 1.835-1.834h4.304c.125 0 .24.063.309.168l11.528 17.891a.183.183 0 0 0 .337-.1V6.606h5.494V31.56a1.835 1.835 0 0 1-1.834 1.834h-4.07a.734.734 0 0 1-.617-.337ZM94.23 7.54l-1.16 4.069a.183.183 0 0 1-.177.133H82.776a.367.367 0 0 0-.366.367v4.77c0 .203.164.368.366.368h8.908a.183.183 0 0 1 .176.237l-1.393 4.533h-7.691a.367.367 0 0 0-.366.367v5.505c0 .203.164.367.366.367h12.087L93.7 32.33a1.465 1.465 0 0 1-1.409 1.064H76.916V20.55l3.303-12.576a1.835 1.835 0 0 1 1.774-1.368h11.53a.734.734 0 0 1 .707.935Zm51.294-.01-1.1 4.076a.183.183 0 0 1-.177.136h-6.898v20.184c0 .81-.657 1.467-1.467 1.467h-3.66a.367.367 0 0 1-.367-.366V11.926a.183.183 0 0 0-.184-.183h-7.886v-3.67c0-.81.657-1.467 1.467-1.467h19.563a.734.734 0 0 1 .709.925Z" id="prefix__Shape" fill="color(display-p3 0.000 0.000 0.000)"/></g></g></g></svg>