<svg width="152px" height="41px" viewBox="0 0 152 41" xmlns="http://www.w3.org/2000/svg"><g id="prefix__Published" stroke="none" stroke-width="1" fill="none" fill-rule="evenodd"><g id="prefix__1.1-|-Logos-Batch-02" transform="translate(-562, -273)" fill="color(display-p3 1.000 1.000 1.000)"><g id="prefix__NolimitCity-Logo" transform="translate(562, 273.9703)"><path d="M36.21 33.007c-.66 0-1.17.252-1.53.741-.36.49-.54 1.17-.54 2.045 0 1.822.69 2.726 2.07 2.726.585 0 1.29-.149 2.115-.43v1.452c-.675.281-1.44.415-2.28.415-1.2 0-2.13-.356-2.76-1.082-.645-.726-.96-1.763-.96-3.096 0-.845.15-1.6.465-2.237a3.391 3.391 0 0 1 1.35-1.467c.585-.34 1.275-.518 2.055-.518.78 0 1.605.192 2.415.577l-.57 1.408a12.346 12.346 0 0 0-.93-.385 2.911 2.911 0 0 0-.915-.163l.015.014Zm24.15 6.845v-8.163h1.755v8.163H60.36Zm27.285 0H85.89v-6.726h-2.25v-1.437h6.24v1.437h-2.25v6.726h.015Zm26.37-4.8 1.725-3.363h1.89l-2.745 4.992v3.186h-1.74V36.74l-2.745-5.037h1.905l1.71 3.363v-.015Zm4.02-25.067H116.1c-.36 0-.39 0-.435-.355a6.991 6.991 0 0 0-.585-2.193c-.765-1.63-2.085-2.533-3.87-2.726-1.005-.118-1.995-.059-2.97.267-1.395.46-2.355 1.363-2.955 2.667-.285.622-.435 1.274-.525 1.94 0 .074 0 .148-.015.208 0 .118-.075.192-.195.192H100.26c-.12 0-.195-.074-.21-.192-.045-.237-.075-.49-.135-.726-.195-.83-.495-1.615-.99-2.326-.9-1.304-2.16-1.97-3.75-2.06-.675-.029-1.365 0-2.025.149-1.71.415-2.865 1.437-3.54 3.037a5.8 5.8 0 0 0-.45 1.733c-.045.385-.045.385-.465.385H84.72c-.225 0-.27-.059-.255-.296.03-.267.06-.533.105-.785.3-1.704.87-3.319 1.845-4.756C87.855 2.015 89.88.726 92.43.238a11.85 11.85 0 0 1 2.4-.208c1.98.015 3.75.652 5.295 1.866.72.563 1.335 1.23 1.905 1.941.105.119.195.252.3.37.06.09.15.09.225 0 .12-.133.225-.266.345-.414a12.105 12.105 0 0 1 1.98-1.926c1.56-1.2 3.345-1.808 5.325-1.852 1.245-.03 2.46.133 3.645.518 1.98.652 3.495 1.882 4.62 3.6.9 1.393 1.44 2.904 1.74 4.519.06.311.09.622.135.948.045.37.045.37-.36.37h-1.935l-.015.015Zm-91.86 1.26h2.04c.24 0 .285.044.285.266v1.111c.03.845.15 1.615.465 2.37.555 1.364 1.455 2.46 2.775 3.2.81.445 1.68.697 2.595.786 1.095.104 2.175.074 3.255-.178 2.52-.607 4.11-2.178 4.875-4.592.15-.49.195-.919.225-1.512-.015-.4 0-.814 0-1.214 0-.178.045-.237.21-.237h4.245c.165 0 .21.044.21.237.045 1.363 0 2.71-.36 4.044-.42 1.496-1.05 2.889-2.01 4.133-1.275 1.63-2.925 2.726-4.905 3.363-1.29.415-2.61.608-3.96.637-1.395.045-2.79-.059-4.155-.4-3.405-.844-5.775-2.903-7.17-6.074a11.72 11.72 0 0 1-.96-3.63c-.06-.696-.015-1.407-.03-2.118 0-.133.075-.192.195-.192h2.175ZM42.75 9.97c-.09-.133-.105-.281-.135-.414C42.18 7.437 40.92 5.97 38.88 5.2a7.969 7.969 0 0 0-2.565-.504c-1.17-.059-2.325 0-3.45.326-1.485.43-2.685 1.215-3.51 2.534a5.92 5.92 0 0 0-.81 2.163c-.045.266-.06.281-.3.281H24.12c-.255 0-.3-.06-.255-.281.06-.326.105-.667.18-.993.36-1.6 1.005-3.096 1.98-4.415 1.38-1.866 3.225-3.081 5.46-3.718a14.051 14.051 0 0 1 3.33-.519C36.345 0 37.845.12 39.33.49c1.965.504 3.69 1.437 5.07 2.918 1.17 1.245 1.95 2.697 2.475 4.297.165.518.3 1.052.39 1.6.03.163.045.31.06.474 0 .192-.03.252-.24.252h-3.96c-.12 0-.24-.015-.36-.03l-.015-.03ZM5.025.148c1.29 0 2.58.015 3.855 0 .87-.015 1.71.104 2.535.326 1.515.415 2.925 1.037 4.17 2 1.785 1.378 2.85 3.185 3.27 5.363.09.489.135.978.18 1.467 0 .118.015.252.015.37 0 .282-.03.311-.3.326H14.565c-.12 0-.195-.074-.195-.193a6.25 6.25 0 0 0-.105-1.051c-.15-.786-.435-1.526-.93-2.178-.75-1.008-1.8-1.526-3.015-1.763a6.106 6.106 0 0 0-1.275-.133H4.86c-.105 0-.15.074-.165.177v4.667c0 .474 0 .474-.465.474H.165a.134.134 0 0 1-.135-.133v-9.2C0 .104 0 .133.57.133h4.455v.015ZM59.88 23.674h-7.02c-.105 0-.165-.06-.18-.163V11.851c0-.651-.06-.607.6-.607h3.87c.105 0 .165.06.18.163V18.4c0 .667-.06.637.63.637h8.64c.66 0 .615-.044.615.593v3.882c0 .103-.075.162-.18.162H59.88ZM143.97.03H151.59c.105 0 .165.059.18.163V4.474c0 .104-.075.163-.18.163h-4.725c-.465 0-.48 0-.48.46v4.622c0 .207-.045.237-.27.237H141.93c-.135 0-.195-.06-.21-.193V4.993c0-.341-.03-.356-.375-.356h-4.395c-.885 0-.765.104-.78-.756V.163c0-.104.06-.163.165-.163H143.955l.015.03Zm-17.865 17.437v-5.778c0-.46-.045-.46.465-.46h4.02c.135 0 .18.09.195.208v11.808c0 .4 0 .414-.42.414h-4.02c-.195 0-.225-.044-.24-.266v-5.941.015Zm-10.41-.03v-5.719c0-.489-.045-.489.51-.474h4.02c.075 0 .135.06.135.134 0 .163.015.31.015.474v11.6c0 .163-.06.207-.24.207h-4.275a.134.134 0 0 1-.135-.133v-6.089h-.03Zm-10.95.03v5.66c0 .547.03.532-.51.532H100.215a.134.134 0 0 1-.135-.133V11.778c0-.533-.045-.533.51-.533H104.61c.075 0 .135.059.135.133v6.089Zm-31.44 0v-5.822c0-.4 0-.415.42-.415h4.08c.135 0 .18.089.18.207v11.926c0 .267-.03.296-.315.296h-4.14c-.195 0-.24-.044-.24-.266v-5.941l.015.015ZM4.65 23.422c-.105.074-.24.06-.36.06H.21c-.12 0-.195-.06-.21-.193V11.467c0-.193.045-.237.27-.252h4.245c.105 0 .165.06.165.163v11.555c0 .163.03.311-.03.474v.015Zm14.415-5.881v5.821c0 .268-.03.297-.315.297h-4.245c-.075 0-.12-.074-.135-.148V11.867c0-.46 0-.46.48-.46h3.96c.195 0 .24.06.24.267v5.881l.015-.014Zm65.385-.074v-6.045c0-.103.06-.163.165-.177H88.845c.18 0 .225.044.24.207v12.029c0 .104-.06.164-.165.164H84.735c-.255 0-.285-.03-.3-.267V17.438l.015.029Zm61.95.059v5.615c0 .563.03.533-.51.533h-3.96a.156.156 0 0 1-.165-.163v-11.6c0-.726-.075-.637.675-.637h3.81c.105 0 .165.074.165.178v6.089l-.015-.015ZM130.785 5.022V9.69c0 .267-.045.296-.315.296h-4.08c-.24 0-.27-.044-.285-.281V.282c0-.208.045-.238.27-.252h4.14c.255 0 .285.03.285.281v4.711h-.015Zm-57.48-.015V.504c0-.474 0-.474.465-.474h3.75c.105 0 .21 0 .315.014.075 0 .135.06.135.134v9.274c0 .548.015.533-.525.533h-4.02a.134.134 0 0 1-.135-.133v-4.83l.015-.015Zm-15.99 0v4.504c0 .474 0 .474-.465.474h-4.02c-.105 0-.165-.074-.165-.178V.637c0-.667-.06-.607.6-.607h3.855c.135 0 .18.088.195.207v4.77Z" id="prefix__Combined-Shape" fill-rule="nonzero"/></g></g></g></svg>