<svg xmlns="http://www.w3.org/2000/svg" width="185" height="31" viewBox="0 0 185 31"><path fill="#FFF" d="M116.940342,0.220512223 C118.455184,0.490498512 119.834771,1.16546424 120.970902,2.19141214 C121.782424,2.89337649 122.269338,3.91932439 122.296388,4.99926955 C122.296388,5.9712202 121.890627,6.88917358 121.160257,7.51014205 C120.375786,8.2121064 119.347858,8.59008721 118.292879,8.56308858 C117.21085,8.56308858 116.155871,8.23910503 115.209095,7.69913245 C114.911537,7.51014205 114.559877,7.42914616 114.181167,7.45614479 C113.477848,7.48314342 113.126188,7.80712697 113.126188,8.32010092 C113.153239,8.77907761 113.423746,9.18405705 113.829507,9.40004608 C114.424623,9.80502551 115.073841,10.1290091 115.75011,10.3449981 C116.534581,10.6149844 117.319052,10.9389679 118.184676,11.2629515 C118.942097,11.5329378 119.672467,11.8839199 120.375786,12.315898 C121.728323,13.044861 122.837403,14.1518048 123.594824,15.5287349 C124.271092,16.7976704 124.622752,18.2285978 124.622752,19.6865237 C124.622752,21.1444497 124.379295,22.3323894 123.892382,23.5743263 C123.432519,24.762266 122.756251,25.8152125 121.863577,26.7061673 C120.781547,27.7861124 119.510162,28.6230699 118.076473,29.1630425 C116.642784,29.7030151 115.100892,30 113.586051,30 C111.449042,30 109.339085,29.5140247 107.472584,28.4610781 C105.795438,27.597122 104.469952,26.1661947 103.793683,24.4112838 C103.387922,23.2773414 103.171516,22.0894017 103.171516,20.901462 C103.090364,17.9316128 104.442901,15.0967568 106.823366,13.26085 L106.769265,13.2338514 C105.741336,11.8839199 105.173271,10.2370036 105.14622,8.53608995 C105.173271,6.94317084 105.660184,5.37725036 106.552859,4.05431754 C107.391431,2.73138472 108.608715,1.67843819 110.069455,1.05746972 C111.557245,0.382503996 113.18029,0.0315218196 114.830385,0.0315218196 C116.48048,0.0315218196 116.237023,0.0855190776 116.940342,0.220512223 Z M95.5973095,0.0585204486 C96.6793391,0.0585204486 97.5990642,0.436501254 98.3294341,1.13846561 C99.1139055,1.94842448 99.5467174,3.05536827 99.4655651,4.18931068 L99.4655651,25.4372317 C99.4926159,26.3011878 99.3032607,27.165144 98.8974996,27.9211056 C98.5728908,28.5690727 98.0589267,29.1090452 97.4367598,29.4600274 C96.8686943,29.8110096 96.1924258,29.9730014 95.5161573,29.9730014 C94.4341278,29.9730014 93.379149,29.5410233 92.6487791,28.7310644 C91.8102062,27.8401097 91.3503436,26.6251714 91.4044451,25.4102331 L91.4044451,4.2973052 L91.4585466,4.2973052 C91.4044451,3.13636415 91.8372569,2.00242174 92.7028805,1.19246287 C93.487352,0.463499883 94.51528,0.0585204486 95.5973095,0.0585204486 Z M152.836672,0.0585204486 C153.918702,0.0585204486 154.838427,0.436501254 155.568797,1.13846561 C156.353268,1.94842448 156.78608,3.05536827 156.704928,4.18931068 L156.704928,25.4372317 C156.704928,26.3011878 156.542623,27.165144 156.136862,27.9211056 C155.812253,28.5690727 155.298289,29.1090452 154.676122,29.4600274 C154.108057,29.8110096 153.431788,29.9730014 152.75552,29.9730014 C151.67349,29.9730014 150.618511,29.5410233 149.888142,28.7310644 C149.049569,27.8401097 148.589706,26.6251714 148.643808,25.4102331 L148.643808,4.2973052 L148.697909,4.2973052 C148.643808,3.13636415 149.076619,2.00242174 149.942243,1.19246287 C150.726714,0.463499883 151.754642,0.0585204486 152.836672,0.0585204486 Z M79.6103231,1.24646012 C80.448896,2.11041625 80.8546571,3.29835593 80.7735049,4.51329423 L80.7735049,21.2794428 C80.7735049,21.9004113 81.1251645,22.1973962 81.7473315,22.1973962 L84.3983038,22.1973962 C86.5623629,22.0354044 88.4288639,23.6553222 88.5911683,25.8152125 L88.5911683,26.1661947 C88.5911683,27.1381453 88.2665594,28.110096 87.6173417,28.839059 C86.8869718,29.6220192 85.8590437,30.0269986 84.8040649,29.9460027 L76.6617927,29.9460027 C75.5527124,29.9460027 74.4977336,29.5140247 73.7944144,28.6500686 C73.1181459,27.8401097 72.7394356,26.8141618 72.7394356,25.7612152 L72.7394356,4.78328052 C72.7394356,3.89232577 72.9287908,3.00137101 73.3345518,2.19141214 C73.6591607,1.51644641 74.2001755,0.976473834 74.8493932,0.598493028 C76.3912853,-0.292461728 78.3659892,-0.0494740674 79.6103231,1.24646012 Z M4.92323439,0.0315218196 L10.9014476,0.0315218196 C12.4974411,0.00452319059 14.0934347,0.463499883 15.4459716,1.32745601 C16.7173563,2.19141214 17.7723351,3.35235319 18.4486036,4.75628189 C19.1248721,6.1602106 19.4765317,7.72613108 19.4765317,9.29205156 C19.4765317,10.857972 19.1789735,12.2079035 18.5568066,13.5308363 C17.9346396,14.8807678 16.960813,16.0417088 15.7435298,16.9056649 L19.6929376,23.2773414 C20.2610031,24.1412975 20.5856119,25.1402468 20.6126627,26.1661947 C20.6126627,27.2191412 20.1798509,28.2450891 19.341278,28.8930562 C18.5297558,29.5680219 17.474777,29.9460027 16.4197982,29.9190041 C15.1213628,30.0269986 13.8770288,29.3520329 13.2007603,28.2180905 C10.1981284,23.2233441 8.5209826,20.3614895 8.08817079,19.6325265 L8.08817079,25.8422111 C8.14227226,26.9491549 7.68240971,28.0291001 6.84383682,28.7580631 C6.00526393,29.4330288 4.95028513,29.8110096 3.89530633,29.8110096 C2.92147975,29.8110096 1.9747039,29.5140247 1.21728323,28.8930562 C0.459862553,28.2450891 0.0270507384,27.3001371 0.0811522152,26.3011878 L0.0811522152,15.0697582 C0.0811522152,14.1518048 0.324608861,13.2338514 0.838572891,12.4508912 C1.41926208,11.7201283 2.28272165,11.3186287 3.20901908,11.3561467 L3.363,11.367 L0.622166983,6.70018318 C0.189355169,5.99821883 0,5.21525859 0,4.40529972 C0,3.59534085 0.432811815,2.16441351 1.24433397,1.32745601 C2.21816055,0.409502625 3.57069747,-0.0764726964 4.92323439,0.0315218196 Z M58.0508846,0.0315218196 C59.0788127,0.0315218196 59.9173856,0.301508109 60.701857,0.841480689 C61.5133791,1.4084519 62.0814447,2.21841077 62.3249013,3.19036141 L65.8955988,14.2328007 C66.8153239,14.2328007 67.6809475,14.5837828 68.3031145,15.2857472 C68.9252815,15.9337143 69.2498903,16.8246691 69.2498903,17.7156238 C69.2498903,18.6065786 68.6547741,20.0105073 67.6538968,20.6314757 L69.1146366,24.8972591 C69.1957889,25.2212427 69.2498903,25.5722248 69.2498903,25.923207 C69.2498903,26.6251714 69.0334844,27.3001371 68.6547741,27.8941069 C68.2760638,28.5150754 67.735049,29.0010507 67.0858313,29.3520329 C66.4636643,29.6760165 65.7873958,29.8920055 65.0840766,29.9190041 C64.4348589,29.9190041 63.8126919,29.7570123 63.2987279,29.4060302 L54.8588975,23.7363181 L53.4793098,27.2731385 C53.2088025,28.0560987 52.6677877,28.7040658 51.9644685,29.1090452 C50.3955257,30.0809959 48.3667203,29.9460027 46.9330311,28.7310644 C46.1485597,28.0830973 45.6886972,27.0841481 45.7427987,26.0582002 C45.7644392,25.6262221 45.8380173,25.194244 45.9496827,24.7760893 L46.0403568,24.4652811 L46.0403568,24.4382824 L53.3440561,3.0823669 C53.668665,2.13741488 54.3178827,1.35445464 55.1564556,0.841480689 C56.0220793,0.301508109 57.0229566,0.0315218196 58.0508846,0.0315218196 Z M175.396988,0.0315218196 C178.102062,0.0315218196 179.833309,0.54449577 181.862114,1.43545053 C182.80889,1.81343133 183.647463,2.4343998 184.242579,3.24435867 C184.729493,3.94632302 185,4.78328052 185,5.64723665 C185,6.51119278 184.675391,7.48314342 184.053224,8.15810915 C183.431057,8.8600735 182.538383,9.26505293 181.591607,9.23805431 C180.834186,9.23805431 180.103816,9.0490639 179.427548,8.6710831 C178.210265,8.05011463 176.857728,7.69913245 175.47814,7.6451352 C174.125603,7.6451352 172.800117,7.99611737 171.691037,8.75207898 C170.581956,9.45404334 169.689282,10.425994 169.067115,11.586935 C168.471999,12.6398816 168.14739,13.8548199 168.14739,15.0697582 C168.14739,16.2846965 168.471999,17.4726361 169.094166,18.5255827 C169.743384,19.6055278 170.636058,20.4964826 171.718087,21.1444497 C172.827168,21.7924168 174.098552,22.143399 175.396988,22.1164003 C176.803626,22.1164003 178.210265,21.7384195 179.427548,21.0364552 C180.022664,20.685473 180.698933,20.4964826 181.375201,20.469484 C182.321977,20.469484 183.214651,20.8744634 183.809768,21.6034264 C184.431934,22.3323894 184.783594,23.2503428 184.756543,24.2222934 C184.756543,25.5452262 184.107326,26.7871632 182.971195,27.4621289 L182.998245,27.5161261 C180.671882,29.1090452 177.912707,29.9460027 175.09943,29.9190041 C173.205878,29.9190041 171.312326,29.5410233 169.554028,28.8120603 C167.79573,28.0830973 166.172686,27.0301508 164.766048,25.707218 C163.38646,24.4112838 162.250329,22.8723619 161.438807,21.1714483 C160.627285,19.524532 160.194473,17.7156238 160.167422,15.879717 C160.167422,13.1258569 160.843691,10.3989954 162.196228,7.99611737 C163.494663,5.59323939 165.415265,3.59534085 167.741629,2.19141214 C170.040942,0.787483431 172.691914,0.0315218196 175.396988,0.0315218196 Z M128.896769,0.0315218196 L141.286007,0.0315218196 C142.15163,0.00452319059 142.990203,0.220512223 143.720573,0.652490286 C144.369791,1.03047109 144.910806,1.57044367 145.262465,2.21841077 C145.614125,2.83937923 145.776429,3.54134359 145.776429,4.24330794 C145.776429,5.26925584 145.42477,6.24120649 144.721451,6.97016947 C143.96403,7.75312971 142.882,8.18510777 141.799971,8.10411189 L138.418628,8.10411189 C138.797339,8.29310229 139.067846,8.64408447 139.148998,9.0490639 C139.284252,9.75102826 139.338354,10.4529926 139.311303,11.154957 L139.311303,26.0312015 C139.365404,27.0841481 138.986694,28.1370946 138.229273,28.8930562 C137.525954,29.5680219 136.552128,29.9190041 135.578301,29.8650069 C134.117561,29.8650069 132.737973,29.1630425 131.8994,27.9481042 C131.466589,27.3271357 131.250183,26.5711741 131.277234,25.7882139 L131.277234,13.9088171 C131.304284,13.1798541 131.196081,12.4778898 130.979675,11.7759254 C130.573914,11.1009597 130.05995,10.5069899 129.410733,10.0480132 C129.004971,9.75102826 128.680363,9.45404334 128.436906,9.29205156 C128.193449,9.13005979 127.84179,8.83307487 127.381927,8.42809544 C126.922065,8.05011463 126.597456,7.75312971 126.353999,7.53714068 C126.137593,7.32115165 125.921187,7.07816399 125.731832,6.83517633 C125.136716,6.05221608 124.839158,5.08026544 124.866209,4.1083148 C124.866209,3.05536827 125.190817,2.02942036 125.894137,1.24646012 C126.651557,0.409502625 127.760638,-0.0224754384 128.896769,0.0315218196 Z M41.7663401,1.16546424 C42.49671,1.89442722 42.8754204,2.89337649 42.8483696,3.94632302 C42.8483696,5.05326681 42.3885071,6.10621334 41.5499342,6.83517633 C40.4949554,7.69913245 39.1153677,8.13111052 37.7628308,8.023116 L41.0900716,11.1009597 C41.8745431,11.8569213 42.2803041,12.8828692 42.2532534,13.9628144 C42.2532534,15.0427595 41.8745431,16.0957061 41.1441731,16.9056649 C40.3597017,17.7696211 39.2235707,18.2285978 38.0603889,18.1746005 L32.9207486,18.1746005 L32.9207486,21.9004113 L39.9268899,21.9814072 C40.9277672,21.9814072 41.9015938,22.3863866 42.5508115,23.1423482 C43.2000292,23.9253085 43.5516888,24.8972591 43.5246381,25.923207 C43.6057903,28.0291001 41.9556953,29.784011 39.8457377,29.8650069 L28.3491739,29.8650069 C25.9146074,29.8650069 24.6702734,28.542074 24.6702734,25.8692098 L24.6702734,14.1788034 C24.6702734,13.2338514 24.9678316,12.315898 25.5358971,11.5329378 C26.1418336,10.70138 27.0776689,10.1990855 28.1014773,10.0919069 L28.211,10.083 L25.021933,7.29415302 C24.1022079,6.48419415 23.5611932,5.3232531 23.6152946,4.08131617 C23.6152946,3.37935181 23.7775991,2.70438609 24.1022079,2.08341762 C24.4268168,1.46244916 24.9407808,0.949475205 25.5629478,0.598493028 C26.2933177,0.193513594 27.1048399,0.00452319059 27.9434128,0.00452319059 L38.8989618,0.00452319059 C39.9809914,-0.0494740674 41.0359702,0.382503996 41.7663401,1.16546424 Z M50.292,17.536 L47.7986548,24.8432619 C47.6363503,25.2482413 47.5822489,25.6532207 47.5822489,26.0851988 C47.5551981,26.6791686 47.771604,27.2731385 48.2314666,27.6511193 C48.6372277,28.0291001 49.1511917,28.2180905 49.7192572,28.2180905 C50.2873227,28.2180905 50.6119316,28.0830973 50.9906419,27.8401097 C51.3693522,27.597122 51.6398596,27.1921426 51.7751133,26.7601645 L53.5063606,21.7114209 C53.4252084,21.6574236 53.3440561,21.5764278 53.2629039,21.5224305 C53.2088025,21.4684332 53.1276502,21.414436 53.046498,21.3874374 L52.994,21.351 L51.2070478,26.4901782 C51.0988449,26.7601645 50.9094897,27.0031522 50.6389823,27.165144 C50.3684749,27.3541344 50.0438661,27.4351302 49.7192572,27.4351302 C49.3675976,27.4351302 49.2052932,27.2731385 49.2052932,27.0841481 C49.2052932,26.8141618 49.4216991,26.65217 49.8815616,26.65217 C50.3414242,26.65217 50.2061705,26.5441755 50.3414242,26.436181 C50.5037286,26.3281865 50.6119316,26.1931933 50.6930838,26.0042029 L52.408,20.948 L51.3693522,20.1185018 C50.666033,19.6325265 50.2332212,18.8495662 50.260272,17.9856101 C50.260272,17.8398175 50.2700102,17.6961848 50.2894868,17.5553599 L50.292,17.536 Z M175.424039,1.86742859 C173.449335,1.86742859 171.772189,2.2454094 170.095043,2.97437238 C168.471999,3.67633673 167.011259,4.72928326 165.821026,6.02521746 C164.630794,7.32115165 163.656967,8.80607624 162.980699,10.425994 C162.30443,12.0729103 161.952771,13.8278212 161.952771,15.6097307 C161.952771,17.337643 162.385583,19.011558 163.115953,20.5774785 C163.846323,22.0894017 164.874251,23.4663318 166.145635,24.6002742 C167.389969,25.7342166 168.850709,26.65217 170.419652,27.2731385 C171.934493,27.8941069 173.584588,28.2180905 175.234683,28.2180905 C177.588098,28.2180905 179.88741,27.5431248 181.808013,26.1931933 C182.484281,25.8152125 182.917093,25.0862495 182.944144,24.3032893 C182.944144,23.7903153 182.727738,23.30434 182.376078,22.9533578 C181.997368,22.575377 181.483404,22.3863866 180.96944,22.3863866 C180.59073,22.4403839 180.23907,22.5483784 179.88741,22.7373688 L179.914461,22.7373688 C178.453721,23.520329 176.803626,23.9253085 175.12648,23.9253085 C173.449335,23.9253085 172.042696,23.520329 170.71721,22.7373688 C168.066238,21.1714483 166.416143,18.3365923 166.33499,15.2587486 C166.33499,12.0189131 168.039187,9.02206527 170.771312,7.32115165 C172.17795,6.45719552 173.773944,5.99821883 175.424039,5.99821883 C177.209387,6.05221608 178.967685,6.51119278 180.536628,7.37514891 C181.266998,7.78012834 182.159672,7.61813657 182.700687,6.97016947 C183.052347,6.56519004 183.214651,6.07921471 183.214651,5.56624076 C183.214651,4.40529972 182.538383,3.56834222 181.158795,3.00137101 C179.346396,2.2454094 177.398743,1.86742859 175.424039,1.86742859 Z M114.586928,1.81343133 C113.20734,1.81343133 111.827753,2.13741488 110.583419,2.73138472 C109.366135,3.32535456 108.392309,4.27030657 107.770142,5.45824625 C107.283229,6.43019689 107.012721,7.48314342 107.039772,8.56308858 C107.012721,10.2910008 107.770142,11.9649158 109.095628,13.044861 C109.17678,13.1258569 109.284983,13.1798541 109.393186,13.1798541 C109.498893,13.1603165 109.605167,13.1475653 109.711515,13.1414369 L109.474338,12.9908637 L109.474338,12.9368665 L109.501389,12.9368665 C109.501389,12.8558706 109.447288,12.7748747 109.366135,12.6938788 C109.312034,12.6128829 109.203831,12.5048884 109.149729,12.4238925 C109.068577,12.3428966 108.987425,12.2619008 108.933324,12.1809049 C108.933324,11.8299227 109.014476,11.6679309 109.230882,11.6679309 C109.447288,11.6679309 109.447288,11.6679309 109.52844,11.8029241 C110.231759,12.5858843 111.070332,13.26085 111.990057,13.773824 C113.072087,14.3677938 114.208218,14.8537691 115.371399,15.2317499 C115.587805,15.2317499 115.668957,15.3667431 115.668957,15.4747376 C115.696008,15.663728 115.587805,15.8257198 115.39845,15.879717 L115.317298,15.879717 C114.992689,15.8257198 114.66808,15.7447239 114.343471,15.6367294 C114.072964,15.5557335 113.694254,15.3937417 113.234391,15.2047513 L112.314666,14.8267705 L112.178719,14.7374231 C112.204631,14.8366823 112.223089,14.9387186 112.233514,15.0427595 L112.125311,15.0697582 C112.125311,15.2317499 112.233514,15.3667431 112.368767,15.4207403 C113.234391,15.7177253 113.910659,15.9337143 114.370522,16.0957061 C114.884486,16.2846965 115.425501,16.5276841 115.912414,16.7706718 C116.48048,17.0676567 116.994444,17.4456375 117.454306,17.8776156 C117.887118,18.282595 118.157625,18.795569 118.292879,19.3625402 C118.346981,19.6595251 118.374031,19.9835086 118.374031,20.2804936 C118.428133,21.3874374 117.914169,22.4403839 117.021494,23.088351 C116.182921,23.7633167 115.154993,24.1682961 114.100015,24.2222934 C112.963884,24.2222934 111.827753,23.9253085 110.826875,23.3583373 C109.853049,22.8453633 109.257932,21.846414 109.312034,20.7394703 C109.312034,19.9835086 109.52844,19.227547 109.880099,18.5525813 C110.069455,18.1476019 110.285861,17.7966197 110.556368,17.4456375 C110.826875,17.0946553 111.043281,16.7166745 111.205586,16.3116951 C111.313789,16.0417088 111.36789,15.7447239 111.36789,15.447739 C111.36789,15.0157609 111.232636,14.6107815 110.962129,14.2867979 C110.691622,13.9628144 110.285861,13.773824 109.853049,13.8008226 C109.122679,13.8548199 108.392309,14.1248062 107.824243,14.5567842 C106.877467,15.2047513 106.120047,16.1227047 105.633133,17.1756512 C105.14622,18.2285978 104.902764,19.3895388 104.902764,20.5504799 C104.902764,21.7114209 105.14622,23.0073551 105.687235,24.1142989 C106.147098,25.1402468 106.904518,26.0042029 107.851294,26.5981727 C109.52844,27.6511193 111.449042,28.1910919 113.423746,28.1910919 C115.39845,28.1910919 116.264074,27.8941069 117.58956,27.3001371 C118.860945,26.7331659 119.970025,25.8962084 120.862699,24.8432619 C121.701272,23.817314 122.296388,22.6023757 122.539845,21.3064415 C122.620997,20.7934675 122.675099,20.2804936 122.675099,19.7675196 C122.675099,16.5276841 121.052054,14.2597993 117.751864,12.9908637 C117.292002,12.8018733 116.723936,12.5858843 116.047668,12.3698953 C115.452552,12.1809049 114.884486,11.9649158 114.316421,11.7219282 C113.829507,11.5059391 113.342594,11.2629515 112.909782,10.9929652 C111.881854,10.5069899 111.259687,9.48104197 111.286738,8.34709955 C111.286738,7.67213382 111.557245,6.9971681 112.09826,6.56519004 C112.774528,6.02521746 113.613101,5.78222979 114.478725,5.83622705 C115.533704,6.05221608 116.534581,6.43019689 117.481357,6.94317084 C117.697763,7.02416673 117.941219,7.07816399 118.157625,7.07816399 C118.725691,7.07816399 119.266706,6.86217495 119.699517,6.48419415 C120.132329,6.1602106 120.402837,5.64723665 120.402837,5.10726407 C120.402837,4.2973052 119.80772,3.54134359 118.644539,2.86637786 C117.400205,2.16441351 115.993566,1.7864327 114.586928,1.81343133 Z M65.7873958,15.9067157 L52.9923965,15.9067157 C52.4513818,15.9067157 51.910367,16.1497033 51.5857582,16.5816814 C51.2070478,16.9866608 50.9635912,17.4996348 50.9365404,18.066606 C50.9365404,18.7145731 51.3152508,19.3355415 51.8833163,19.6325265 L63.7585904,27.6781179 C64.1643515,27.9751028 64.6783155,28.1370946 65.1652288,28.1640932 C65.7603451,28.1640932 66.3554613,27.8941069 66.7071209,27.4081316 C67.0317298,27.0571494 67.2481357,26.5981727 67.3292879,26.1121974 C67.1669835,25.0322523 66.8964761,24.0063044 66.5177658,22.9803565 C66.1745382,21.9771263 65.8535299,21.3952484 65.5144659,21.2548214 L66.7882731,25.3292372 L66.8423746,25.6652201 C66.8513915,25.7192174 66.8604084,25.7702148 66.8694254,25.8152125 C66.8694254,26.2471906 66.7071209,26.65217 66.4095628,26.9491549 C66.1390554,27.2731385 65.7332943,27.4351302 65.3004825,27.4351302 C64.8676707,27.4351302 64.6512648,27.3271357 64.3807574,27.1381453 L52.9653458,19.6055278 C52.5866355,19.3895388 52.3972803,19.1735498 52.3972803,19.011558 C52.3972803,18.8495662 52.532534,18.795569 52.7489399,18.795569 C52.9653458,18.795569 53.1276502,18.8495662 53.3170054,18.9575607 L64.5971633,26.6251714 C64.8135692,26.7601645 65.0840766,26.8141618 65.3275333,26.7871632 C65.8414973,26.7871632 66.1390554,26.5441755 66.1390554,26.0312015 C66.1390554,25.5182276 66.0849539,25.5452262 66.0038017,25.3292372 L64.69,20.855 L64.5701126,20.7934675 L64.5971633,20.7934675 L64.5971633,20.7664689 C64.3537067,20.6584744 64.0561486,20.6314757 63.7856412,20.6314757 C62.9470683,20.5774785 62.1355461,21.0904524 61.8650387,21.9004113 C60.6207048,21.1444497 59.4845738,20.3884881 58.4836964,19.6595251 L65.6250914,19.6595251 C66.6530194,19.7135224 67.5186431,18.9305621 67.5727446,17.9046142 L67.5727446,17.7156238 C67.5727446,17.2566471 67.4104401,16.7976704 67.112882,16.4196896 C66.7612224,16.0417088 66.2743091,15.8527184 65.7873958,15.9067157 Z M12.82205,17.6076293 C11.8752742,17.6076293 11.2801579,17.9856101 11.1178535,18.7415717 L10.7661939,19.4705347 L10.8202954,19.4705347 L10.8202954,19.4975333 C10.8202954,19.95651 10.8202954,20.4154867 10.9014476,20.8744634 L14.8238046,27.4081316 C15.1213628,27.9211056 15.716479,28.2180905 16.3115953,28.1370946 C16.9067115,28.1370946 17.474777,27.9211056 17.9346396,27.5431248 C18.4215529,27.2191412 18.6920602,26.6791686 18.6920602,26.0851988 C18.6920602,25.491229 18.5297558,25.2482413 18.2862992,24.8972591 L14.3368914,18.282595 C14.0122825,17.7966197 13.4171663,17.5266334 12.82205,17.6076293 Z M152.701418,1.7864327 C152.106302,1.7864327 151.511186,2.02942036 151.132476,2.48839706 C150.718599,2.97437238 150.480012,3.59156104 150.456153,4.22187103 L150.456207,25.1132482 C150.402106,25.8962084 150.645562,26.6791686 151.105425,27.3271357 C151.457084,27.8131111 152.02515,28.110096 152.647317,28.1370946 C153.269484,28.1370946 153.837549,27.8401097 154.21626,27.381133 C154.630136,26.8708589 154.868723,26.2512404 154.892582,25.6010054 L154.892528,4.43229835 C154.94663,3.70333536 154.703173,3.00137101 154.24331,2.46139843 C153.837549,2.02942036 153.296535,1.7864327 152.701418,1.7864327 Z M95.4620559,1.7864327 C94.8669396,1.7864327 94.2718234,2.02942036 93.893113,2.48839706 C93.4792367,2.97437238 93.2406492,3.59156104 93.2167905,4.22187103 L93.2168446,25.1132482 C93.1627431,25.8962084 93.4061997,26.6791686 93.8660623,27.3271357 C94.2177219,27.8131111 94.7857874,28.110096 95.4079544,28.1370946 C96.0301214,28.1370946 96.5981869,27.8401097 96.9768972,27.381133 C97.4638105,26.8411604 97.7072671,26.1121974 97.6531657,25.3832344 L97.6531657,4.43229835 C97.7072671,3.70333536 97.4638105,3.00137101 97.0039479,2.46139843 C96.5981869,2.02942036 96.0571721,1.7864327 95.4620559,1.7864327 Z M76.8240971,1.84042996 C76.2560316,1.84042996 75.6879661,2.08341762 75.282205,2.51539569 C74.8683287,3.02566977 74.6516523,3.64528831 74.6321758,4.27584129 L74.6329873,25.491229 C74.6059365,26.1661947 74.7411902,26.8411604 75.0657991,27.4351302 C75.3363065,27.8941069 76.0396257,28.1370946 77.1216552,28.1370946 L84.5335575,28.1370946 C85.1557245,28.1370946 85.7508408,27.9481042 86.1566018,27.4891275 C86.5623629,27.0841481 86.7787688,26.5171769 86.7517181,25.9502057 C86.7787688,24.8972591 85.9672467,24.0063044 84.9122679,23.9523071 L80.5300483,23.9523071 C79.8537798,23.9523071 79.420968,23.7633167 79.2316128,23.3583373 C79.0422576,23.0343537 78.9340547,22.6833715 78.9340547,22.3053907 L78.9340547,4.43229835 C78.9611054,3.73033399 78.7446995,3.05536827 78.3118877,2.51539569 C77.9331774,2.08341762 77.3921626,1.84042996 76.8240971,1.84042996 Z M26.2933177,2.51539569 C25.8064044,2.86637786 25.5358971,3.4603477 25.5629478,4.05431754 C25.6441,5.10726407 26.158064,6.07921471 27.0236877,6.70018318 L33.5970171,12.1809049 L28.7008335,12.1809049 C28.1057172,12.1809049 27.5376517,12.4238925 27.1589414,12.8828692 C26.8343325,13.3148473 26.6179266,13.8548199 26.5908759,14.3947924 L26.5908759,25.4102331 C26.5908759,26.0582002 26.6720281,26.7331659 26.9695862,27.3271357 C27.2400936,27.8401097 27.8352098,28.1370946 28.7819857,28.1370946 L28.7278842,28.110096 L39.4940781,28.110096 C40.1162451,28.110096 40.6843106,27.8941069 41.0900716,27.4351302 C41.4958327,27.0301508 41.7122386,26.4631796 41.7122386,25.8962084 C41.7122386,25.3292372 41.4958327,24.7892646 41.0900716,24.3842852 C40.6302091,23.9523071 40.0080421,23.7093194 39.3858751,23.7633167 L32.8666472,23.7633167 C31.5682117,23.7633167 30.918994,23.2773414 30.918994,22.2783921 L30.918994,18.282595 C30.918994,17.121654 31.4870595,16.5276841 32.5961398,16.5276841 L37.5734757,16.5276841 C39.0071648,16.5276841 40.1432958,15.3667431 40.1973973,13.9358158 C40.1432958,13.0718596 39.710484,12.2619008 39.0071648,11.7489268 L32.4338354,6.1602106 L38.0333382,6.1602106 C38.7907589,6.21420786 39.5752303,5.9712202 40.1703465,5.48524488 C40.6572598,5.10726407 40.9277672,4.51329423 40.954818,3.89232577 C40.954818,3.35235319 40.738412,2.83937923 40.3056002,2.48839706 C39.7916362,2.05641899 39.1153677,1.86742859 38.46615,1.89442722 L28.4844275,1.89442722 C27.6999561,1.84042996 26.9154847,2.05641899 26.2933177,2.51539569 Z M141.123702,1.94842448 L128.734464,1.94842448 C128.2205,1.94842448 127.706536,2.21841077 127.381927,2.6233902 C126.976166,3.05536827 126.732709,3.62233948 126.75976,4.21630931 C126.75976,5.10726407 127.219623,5.91722294 127.949993,6.43019689 C128.518058,6.88917358 129.086124,7.34815028 129.68124,7.8341256 C130.303407,8.32010092 130.763269,8.72508035 131.169031,9.02206527 C131.574792,9.37304745 131.980553,9.72402963 132.332212,10.1290091 C132.873227,10.7499775 133.143734,11.586935 133.062582,12.3968939 L133.062582,25.8152125 C133.062582,26.436181 133.306039,27.0301508 133.765901,27.4351302 C134.225764,27.8401097 134.82088,28.0560987 135.443047,28.0560987 C136.065214,28.0560987 136.470975,27.8671083 136.849686,27.4891275 C137.210362,27.105147 137.421425,26.593173 137.444876,26.0669775 L137.444802,10.7499775 C137.471853,10.1830063 137.282497,9.64303374 136.930838,9.21105568 C136.416874,8.6710831 135.848808,8.18510777 135.226641,7.72613108 C134.604474,7.29415302 134.036409,6.78117907 133.549496,6.18720923 L141.529463,6.18720923 C142.15163,6.21420786 142.773797,5.99821883 143.260711,5.59323939 C143.666472,5.21525859 143.882878,4.70228464 143.882878,4.18931068 C143.882878,3.67633673 143.61237,3.00137101 143.152508,2.6233902 C142.584442,2.13741488 141.854072,1.89442722 141.123702,1.94842448 Z M2.92147975,2.81238061 C2.3263635,3.32535456 2.00175464,4.05431754 2.02880538,4.83727778 C2.02880538,5.43124762 2.19110981,5.99821883 2.48866793,6.51119278 L5.97821319,12.5048884 L7.30369937,12.5048884 L7.30369937,12.3968939 C8.46688112,12.4508912 9.60301214,12.3428966 10.7391431,12.0459117 C10.441585,11.4519419 9.927621,10.5609871 9.19725106,9.37304745 C8.71033777,8.69808173 8.33162743,7.91512149 8.11522152,7.10516262 C8.11522152,6.75418044 8.33162743,6.45719552 8.68328703,6.40319826 C9.03494663,6.26820512 9.44070771,6.18720923 9.81941804,6.18720923 C10.6850417,6.18720923 11.5236146,6.48419415 12.199883,7.02416673 C12.9032022,7.59113794 13.3089633,8.45509406 13.2548618,9.37304745 C13.2548618,9.77802689 13.2007603,10.1560077 13.0655067,10.5339885 C12.8761515,11.4789405 12.2539845,12.2888994 11.3613101,12.6938788 C10.3604328,13.0718596 9.30545401,13.2338514 8.25047522,13.2068528 L4.70682848,13.2068528 C4.13876298,13.2068528 3.57069747,13.2068528 3.00263196,13.3688445 C2.6780231,13.4228418 2.38046498,13.6388308 2.21816055,13.9628144 C2.02880538,14.3677938 1.9747039,14.8267705 2.00175464,15.2857472 L2.00175464,26.0312015 C2.00175464,26.5711741 2.16405907,27.0841481 2.56982015,27.4891275 C2.92147975,27.8131111 3.40839304,28.0021015 3.89530633,28.0021015 C4.38221962,28.0021015 5.00438661,27.8131111 5.46424916,27.4891275 C5.89706097,27.165144 6.14051762,26.6791686 6.14051762,26.1391961 L6.0593654,19.4975333 C6.00526393,18.9305621 6.22166983,18.3905895 6.62743091,17.9856101 C7.03319199,17.6886252 7.52010528,17.4996348 8.00701857,17.4996348 C8.5209826,17.4996348 8.98084515,17.4456375 9.33250475,17.4456375 C10.9825998,17.3106444 12.5515426,16.7976704 13.958181,15.9337143 C15.094312,15.1777527 16.0140371,14.1248062 16.6091534,12.8828692 C17.1501682,11.7489268 17.4477263,10.4799912 17.4477263,9.21105568 C17.5288785,7.69913245 17.0690159,6.21420786 16.1492908,5.02626818 C15.4189209,4.13531343 14.5532973,3.37935181 13.5524199,2.78538198 C12.5515426,2.27240803 11.4695131,1.97542311 10.3333821,1.97542311 L5.30194473,1.97542311 C4.4363211,1.92142585 3.57069747,2.2454094 2.92147975,2.81238061 Z M119.564264,14.5567842 C121.160257,15.6907266 122.107033,17.553632 122.079982,19.524532 C122.079982,21.0634538 121.62012,22.5483784 120.781547,23.8443126 C120.105279,25.0592509 119.0503,26.0312015 117.778915,26.6251714 C116.399327,27.3001371 114.911537,27.6511193 113.369645,27.6511193 C111.827753,27.6511193 112.017108,27.597122 111.36789,27.4621289 C110.962129,27.4081316 110.772774,27.2461398 110.772774,26.9491549 C110.799825,26.7331659 111.043281,26.6791686 111.584296,26.6791686 L111.638397,26.5981727 C112.287615,26.7601645 112.963884,26.8411604 113.640152,26.8411604 C114.938588,26.8411604 116.237023,26.5441755 117.400205,25.9772043 C118.509285,25.4372317 119.456061,24.6272728 120.132329,23.6013249 C120.916801,22.4133853 121.322562,21.0094565 121.295511,19.6055278 C121.376663,17.850617 120.565141,16.1497033 119.131452,15.1237554 C119.0503,15.0697582 118.996198,14.9887623 118.969148,14.8807678 C118.969148,14.7997719 119.023249,14.6917774 119.185553,14.6377801 C119.293756,14.5837828 119.42901,14.5567842 119.564264,14.5567842 Z M182.07852,23.6553222 C182.213774,23.6553222 182.43018,23.8983098 182.43018,24.3842852 C182.349028,25.0592509 181.970317,25.6532207 181.375201,25.9772043 C180.536628,26.5441755 179.616903,26.9491549 178.670127,27.165144 C177.561047,27.4621289 176.424916,27.597122 175.288785,27.597122 C173.692791,27.597122 172.123849,27.2731385 170.690159,26.5441755 L170.663109,26.5711741 C170.392601,26.436181 170.230297,26.3011878 170.230297,26.1391961 C170.230297,25.9772043 170.365551,25.923207 170.609007,25.923207 C170.852464,25.923207 171.014768,25.9772043 171.204123,26.1121974 C172.502559,26.7331659 173.909197,27.0301508 175.342886,27.0031522 C176.289662,27.0031522 177.263489,26.8951577 178.183214,26.65217 C178.994736,26.4631796 179.779207,26.1391961 180.482527,25.707218 C181.023541,25.4102331 181.402252,24.9242577 181.591607,24.3572865 C181.753911,23.8713112 181.943267,23.6553222 182.07852,23.6553222 Z M40.9277672,25.5182276 C41.0630209,25.5182276 41.1441731,25.707218 41.1441731,26.0851988 C41.0359702,26.4901782 40.7925135,26.8411604 40.4679047,27.1111467 C40.1973973,27.3541344 39.8457377,27.5161261 39.4940781,27.5431248 L29.1065945,27.5431248 C28.8090364,27.5431248 28.646732,27.4081316 28.646732,27.1381453 C28.646732,26.8981575 28.7749725,26.7434987 29.012455,26.7120929 L29.1,26.706 L39.4129259,26.7871632 C39.6293318,26.7871632 39.8457377,26.7061673 40.0350928,26.5711741 C40.2514988,26.436181 40.3867524,26.2201919 40.4138032,25.9772043 C40.4138032,25.8692098 40.4679047,25.7342166 40.5761076,25.6802194 C40.6572598,25.5722248 40.7925135,25.5182276 40.9277672,25.5182276 Z M85.8590437,25.8692098 C86.1025004,25.8692098 86.2107033,26.0042029 86.2107033,26.2741892 C86.1566018,26.65217 85.9401959,26.9761536 85.6426378,27.1921426 C85.3450797,27.4081316 84.9934201,27.5431248 84.6147098,27.5431248 L77.0946045,27.5431248 C76.7970464,27.5431248 76.6076912,27.4621289 76.6076912,27.2731385 C76.6076912,27.0031522 76.7970464,26.868159 77.1757567,26.868159 L84.695862,26.868159 C84.9393186,26.868159 85.1557245,26.7871632 85.3450797,26.65217 C85.5073841,26.5171769 85.5885363,26.3011878 85.5885363,26.0851988 C85.5885363,25.8692098 85.72379,25.8692098 85.8590437,25.8692098 Z M136.525077,9.83202414 C136.741483,9.83202414 136.768533,10.0210145 136.768533,10.3989954 L136.768533,25.707218 C136.768533,26.1391961 136.63328,26.5441755 136.389823,26.8951577 C136.200468,27.2461398 135.821758,27.4891275 135.415996,27.4891275 C135.010235,27.4891275 135.118438,27.3541344 135.118438,27.1381453 C135.118438,26.9221563 135.145489,26.868159 135.253692,26.868159 C135.783887,26.868159 136.172696,26.4213017 136.200187,25.9007522 L136.200468,10.6689816 L136.227519,10.6689816 C136.227519,10.1020104 136.308671,9.83202414 136.525077,9.83202414 Z M11.171955,18.6065786 C11.8211727,19.6865237 12.5515426,21.0094565 13.444217,22.6023757 C14.0393332,23.7363181 14.688551,24.8432619 15.4189209,25.923207 C15.8517327,26.5441755 16.230443,26.8411604 16.5550519,26.8411604 C16.8796608,26.8411604 16.7444071,26.8411604 16.8255593,26.7601645 C17.0149145,26.7601645 17.1231174,26.8141618 17.1231174,26.9761536 C17.1231174,27.1381453 17.0419652,27.2191412 16.9067115,27.2731385 C16.7444071,27.3541344 16.5550519,27.4081316 16.3927475,27.4351302 C15.9058342,27.4351302 15.4730224,27.1381453 15.2295657,26.7331659 C14.8779061,26.2741892 14.3098406,25.2212427 13.444217,23.6553222 C12.5785934,22.0894017 11.7129697,20.6584744 10.8473461,19.4165374 L11.171955,18.6065786 Z M16.7444071,8.48209269 C16.8796608,8.48209269 16.960813,8.61708584 16.960813,8.88707213 C17.0149145,11.0739611 16.0681386,13.1798541 14.3639421,14.5837828 C12.4703904,16.0687074 10.1169762,16.7976704 7.73651119,16.6896759 C7.22254716,16.6896759 6.73563386,16.8516677 6.32987279,17.121654 C5.92411171,17.3106444 5.62655359,17.6886252 5.59950285,18.1476019 L5.59950285,25.8152125 C5.59950285,26.2741892 5.1396403,26.7601645 4.24696593,27.3271357 C3.97645855,27.2461398 3.81415412,27.1111467 3.81415412,26.9221563 C3.81415412,26.7331659 3.89530633,26.7061673 4.00350928,26.6791686 L4.00350928,26.65217 C4.70682848,26.3551851 5.08553882,25.9772043 5.08553882,25.5722248 L5.08553882,18.1476019 C5.05848808,17.4996348 5.38309694,16.8786663 5.92411171,16.5276841 C6.46512648,16.1497033 7.1143442,15.9337143 7.76356192,15.9337143 C9.38660623,15.9877116 10.9825998,15.6907266 12.4433397,15.0427595 C13.5794707,14.5297856 14.5262465,13.6658295 15.1484135,12.6128829 C15.7976312,11.4789405 16.230443,10.2640022 16.446849,8.96806802 C16.446849,8.6710831 16.6091534,8.48209269 16.7444071,8.48209269 Z M96.7604913,3.86532714 C97.0309987,3.86532714 97.1121509,4.08131617 97.1121509,4.54029286 L97.1121509,25.2212427 C97.1392016,25.7612152 97.0039479,26.3281865 96.7063898,26.7871632 C96.4899839,27.0841481 96.1653751,27.2731385 95.7866647,27.2731385 C95.4079544,27.2731385 95.1644977,27.0841481 95.1644977,26.7601645 C95.1644977,26.436181 95.2997514,26.5171769 95.5161573,26.5171769 C95.7325632,26.5171769 96.0301214,26.3551851 96.1383243,26.1121974 C96.2465273,25.8422111 96.3276795,25.5722248 96.3276795,25.2752399 L96.3276795,4.64828738 C96.3276795,4.13531343 96.4899839,3.86532714 96.7604913,3.86532714 Z M153.999854,3.86532714 C154.270361,3.86532714 154.351513,4.08131617 154.351513,4.54029286 L154.351513,25.2212427 C154.351513,25.7612152 154.24331,26.3281865 153.945752,26.7871632 C153.729346,27.0841481 153.404738,27.2731385 153.026027,27.2731385 C152.647317,27.2731385 152.40386,27.0841481 152.40386,26.7601645 C152.40386,26.436181 152.539114,26.5171769 152.75552,26.5171769 C152.971926,26.5171769 153.269484,26.3551851 153.377687,26.1121974 C153.48589,25.8422111 153.567042,25.5722248 153.567042,25.2752399 L153.567042,4.64828738 C153.567042,4.13531343 153.729346,3.86532714 153.999854,3.86532714 Z M110.231759,14.5297856 C110.502266,14.5297856 110.691622,14.718776 110.853926,15.0967568 C110.853926,15.4747376 110.772774,15.8257198 110.583419,16.1497033 C110.339962,16.60868 110.096505,17.0676567 109.798947,17.5266334 C109.52844,17.9856101 109.284983,18.4445868 109.068577,18.9035635 C108.879222,19.3895388 108.79807,19.9295114 108.825121,20.4424853 C108.716918,21.6844223 109.284983,22.8993606 110.339962,23.6013249 L110.367013,23.6283236 C110.502266,23.7363181 110.583419,23.8983098 110.583419,24.0603016 C110.583419,24.2222934 110.502266,24.3302879 110.367013,24.3302879 L110.285861,24.3302879 C110.123556,24.3302879 109.961252,24.2222934 109.853049,24.1142989 C109.284983,23.6283236 108.79807,23.0073551 108.473461,22.3323894 C108.202954,21.6034264 108.0677,20.8204661 108.094751,20.0105073 C108.121801,19.6055278 108.230004,19.227547 108.365258,18.8765649 C108.581664,18.3905895 108.825121,17.9046142 109.068577,17.3916403 C109.366135,16.7976704 109.636643,16.3386937 109.771896,16.0147102 C109.90715,15.7177253 109.988302,15.4207403 110.015353,15.0967568 C110.015353,14.718776 110.069455,14.5297856 110.231759,14.5297856 Z M77.9872788,4.1083148 C78.2577862,4.1083148 78.3930399,4.37830109 78.3930399,4.91827367 L78.3930399,23.2233441 C78.3930399,23.6013249 78.2577862,23.817314 77.9872788,23.817314 C77.7167715,23.817314 77.5815178,23.6013249 77.5815178,23.1693469 L77.5815178,4.81027915 C77.5815178,4.35130246 77.7167715,4.1083148 77.9872788,4.1083148 Z M39.1153677,13.5578349 C39.2776722,13.5578349 39.4670273,13.7468253 39.4670273,14.1248062 C39.4670273,14.502787 39.2506214,14.9887623 38.8719111,15.2317499 C38.5473022,15.5287349 38.1415412,15.6907266 37.7357801,15.6907266 L32.2985817,15.6907266 C31.8387191,15.6907266 31.3788566,15.8527184 31.0001462,16.1227047 C30.5673344,16.4196896 30.3238778,16.9326636 30.3779792,17.4456375 L30.3779792,22.7913661 L30.40503,22.7643674 C30.40503,23.3583373 30.2697763,23.6553222 30.0533704,23.6553222 C29.8369645,23.6553222 29.7017108,23.3583373 29.7017108,22.7643674 L29.7017108,17.4186389 C29.7017108,16.7976704 29.9451674,16.2306992 30.40503,15.8257198 C30.8107911,15.4207403 31.3788566,15.1777527 31.9469221,15.1777527 L37.6275771,15.0967568 C37.8980845,15.0967568 38.1685919,14.934765 38.3308963,14.718776 C38.5473022,14.5297856 38.7096067,14.2597993 38.7637081,13.9628144 C38.8448604,13.7198267 38.9530633,13.5578349 39.1153677,13.5578349 Z M175.802749,4.64828738 C176.992981,4.64828738 177.182337,4.75628189 177.831554,4.9452723 C178.237315,4.97227092 178.426671,5.1342627 178.426671,5.3232531 C178.426671,5.5122435 178.291417,5.56624076 178.04796,5.56624076 C177.804504,5.56624076 177.750402,5.53924213 177.615148,5.48524488 C176.992981,5.29625447 176.343764,5.18825996 175.667495,5.18825996 C173.936248,5.21525859 172.259102,5.70123391 170.771312,6.56519004 C169.283521,7.34815028 168.039187,8.53608995 167.173563,9.94001866 C166.280889,11.4789405 165.793976,13.2068528 165.793976,14.9887623 C165.739874,17.6886252 166.876005,20.0645045 169.148267,22.1973962 C169.364673,22.3053907 169.499927,22.5213798 169.526978,22.7643674 C169.526978,22.9533578 169.445825,23.0073551 169.283521,23.0073551 C169.121217,23.0073551 168.958912,22.9263592 168.850709,22.8183647 C166.362041,20.5774785 165.090657,18.0396074 165.117707,15.2047513 C165.117707,13.26085 165.685773,11.3439474 166.68665,9.67003237 C167.254716,8.6710831 168.012136,7.80712697 168.931861,7.10516262 C169.959789,6.32220237 171.09592,5.72823254 172.286153,5.29625447 C173.422284,4.86427641 174.612516,4.64828738 175.802749,4.64828738 Z M112.558123,17.4996348 L112.531072,17.4996348 C111.800702,18.3095936 111.394941,19.3085429 111.36789,20.3884881 C111.36789,21.0364552 111.665448,21.6574236 112.233514,21.9814072 C113.369645,22.6293743 114.749232,22.6023757 115.831262,21.9274099 C116.345226,21.5494291 116.642784,20.9554593 116.615733,20.3344908 C116.588683,19.5785292 116.155871,18.9035635 115.479602,18.5795799 C114.559877,18.0936046 113.559,17.7426224 112.558123,17.4996348 Z M66.4095628,17.0136595 C66.5718672,17.0136595 66.6800702,17.0946553 66.7612224,17.3106444 C66.8153239,17.4456375 66.8423746,17.6076293 66.8423746,17.7426224 C66.8423746,18.0396074 66.7071209,18.3365923 66.490715,18.5525813 C66.3284106,18.7685703 66.0579032,18.8765649 65.7873958,18.9035635 L57.9426817,18.9035635 C57.5098699,18.9035635 57.293464,18.7685703 57.293464,18.5255827 C57.293464,18.282595 57.4828191,18.2285978 57.8615295,18.1746005 L65.6521421,18.1746005 C66.0038017,18.1746005 66.1390554,17.9586115 66.1390554,17.4726361 L66.1661062,17.4726361 C66.1661062,17.1756512 66.2472584,17.0136595 66.4095628,17.0136595 Z M57.7533265,1.94842448 C57.1041088,1.94842448 56.5360433,2.13741488 56.0220793,2.46139843 C55.4810645,2.83937923 55.1023541,3.37935181 54.912999,4.00032028 L50.633,16.535 L50.7277087,16.3812436 C50.8056149,16.2630976 50.8932592,16.1497033 50.9906419,16.0417088 C51.4369791,15.5219852 52.0651573,15.2291251 52.7501609,15.2047201 L55.6433689,15.2047513 L57.7533265,9.21105568 L59.565726,15.2047513 L64.344,15.258 L60.6748063,3.83832851 C60.4854511,3.24435867 60.1067408,2.75838335 59.565726,2.46139843 C59.0247112,2.11041625 58.4025442,1.94842448 57.7533265,1.94842448 Z M57.5369206,13.1258569 L57.0500073,15.2857472 L58.2402398,15.2857472 L57.5369206,13.1258569 Z M57.1311595,7.88812286 C57.3475654,7.88812286 57.4287176,8.07711326 57.4287176,8.45509406 L55.1564556,15.1777527 L54.3449335,15.1507541 L56.6983477,8.26610366 C56.7253985,8.05011463 56.9147536,7.88812286 57.1311595,7.88812286 Z M59.7550812,3.56834222 C59.9444363,3.56834222 60.0526393,3.70333536 60.1337915,3.94632302 L63.704489,15.1507541 L62.8659161,15.1507541 L59.4845738,4.2973052 C59.4845738,3.81132988 59.565726,3.56834222 59.7550812,3.56834222 Z M3.16493639,5.59323939 C3.35429156,5.59323939 3.51659599,5.72823254 3.59774821,5.89022431 L7.33075011,12.2619008 L6.5462787,12.2619008 L3.08378418,6.1602106 C3.05673344,6.05221608 3.0296827,5.94422157 3.0296827,5.80922842 C3.0296827,5.67423528 3.05673344,5.59323939 3.16493639,5.59323939 Z M30.8919433,8.07711326 C31.1083492,8.07711326 31.1624507,8.15810915 31.2436029,8.26610366 L34.1921334,10.7499775 L34.1650826,10.7499775 C34.2462348,10.8039748 34.2732856,10.9119693 34.3003363,10.9929652 C34.3003363,11.1819556 34.2191841,11.2629515 34.0027782,11.2629515 C33.8404738,11.2629515 33.6781693,11.154957 33.5699664,11.0469624 L30.7837403,8.80607624 C30.6214359,8.72508035 30.5402837,8.56308858 30.5402837,8.37409818 C30.5402837,8.18510777 30.6755374,8.07711326 30.8919433,8.07711326 Z M10.1169762,7.80712697 C10.3063313,8.10411189 10.4686358,8.40109681 10.6038895,8.6710831 L11.063752,9.5080406 C11.2260564,9.77802689 11.4154116,10.0750118 11.5506653,10.3719967 C11.685919,10.1290091 11.7670712,9.85902277 11.7670712,9.56203785 C11.7670712,9.10306116 11.577716,8.64408447 11.2531072,8.32010092 C10.9555491,7.99611737 10.549788,7.80712697 10.1169762,7.80712697 Z M129.194327,5.91722294 C129.410733,5.91722294 129.356631,5.94422157 129.410733,5.99821883 L133.549496,9.56203785 C133.738851,9.75102826 133.847054,9.85902277 133.847054,9.99401592 C133.847054,10.1290091 133.765901,10.1830063 133.603597,10.1830063 C133.414242,10.1290091 133.224887,10.0480132 133.089633,9.94001866 L133.062582,9.94001866 L129.059073,6.56519004 C128.95087,6.48419415 128.869718,6.349201 128.842667,6.21420786 C128.842667,5.99821883 128.977921,5.91722294 129.194327,5.91722294 Z M113.991812,4.37830109 C114.478725,4.37830109 114.965638,4.45929697 115.452552,4.62128875 C115.668957,4.67528601 116.047668,4.83727778 116.588683,5.05326681 C117.102647,5.26925584 117.535458,5.43124762 117.833017,5.5122435 C118.049422,5.59323939 118.265828,5.64723665 118.482234,5.67423528 C118.752742,5.70123391 119.023249,5.5122435 119.07735,5.24225721 C119.104401,5.18825996 119.158503,5.16126133 119.239655,5.16126133 C119.456061,5.16126133 119.537213,5.3232531 119.537213,5.64723665 C119.293756,6.07921471 118.860945,6.349201 118.374031,6.32220237 C117.833017,6.24120649 117.292002,6.10621334 116.778038,5.89022431 C116.101769,5.62023802 115.587805,5.43124762 115.209095,5.29625447 C114.695131,5.16126133 114.181167,5.10726407 113.667203,5.10726407 C112.882731,5.1342627 112.179412,5.5122435 111.692499,6.13321197 C111.178535,6.59218866 110.826875,7.24015576 110.772774,7.94212011 L110.718672,7.94212011 C110.691622,8.45509406 110.583419,8.75207898 110.448165,8.75207898 C110.312911,8.75207898 110.25881,8.6710831 110.177658,8.50909132 C110.096505,8.34709955 110.042404,8.15810915 110.015353,7.94212011 C110.069455,6.91617221 110.556368,5.9712202 111.313789,5.29625447 C112.071209,4.67528601 113.017985,4.35130246 113.991812,4.37830109 Z M13.6606229,6.64618592 C13.7147244,6.72718181 13.7417751,6.83517633 13.7417751,6.94317084 C13.7417751,7.10516262 13.6335722,7.26715439 13.4712677,7.29415302 C13.3901155,7.29415302 13.2548618,7.26715439 13.2278111,7.15915987 C12.7949993,6.64618592 12.2810352,6.21420786 11.685919,5.89022431 C11.0908027,5.56624076 10.4145343,5.37725036 9.73826583,5.3232531 C9.14314958,5.3232531 8.54803334,5.48524488 8.03406931,5.80922842 C7.89881562,5.89022431 7.76356192,5.91722294 7.60125749,5.94422157 C7.38485159,5.91722294 7.30369937,5.80922842 7.30369937,5.70123391 C7.27664863,5.5122435 7.30369937,5.43124762 7.38485159,5.35025173 L7.41190232,5.37725036 C8.14227226,4.9452723 8.98084515,4.70228464 9.81941804,4.72928326 C11.3613101,4.64828738 12.7949993,5.37725036 13.6606229,6.64618592 Z M39.9539406,3.62233948 C40.0891943,3.62233948 40.0891943,3.6493381 40.1432958,3.70333536 C40.1973973,3.75733262 40.2514988,3.83832851 40.224448,3.91932439 C40.224448,4.37830109 40.0080421,4.78328052 39.6293318,5.05326681 C39.2235707,5.3232531 38.7637081,5.48524488 38.2767949,5.48524488 L30.6484866,5.48524488 L31.4870595,6.13321197 L31.541161,6.18720923 C31.7034654,6.32220237 31.7846176,6.51119278 31.7846176,6.70018318 C31.7846176,6.88917358 31.7305162,6.97016947 31.5682117,6.97016947 C31.3788566,6.94317084 31.2165521,6.86217495 31.1083492,6.72718181 L29.8640152,5.67423528 C29.7558123,5.56624076 29.7017108,5.43124762 29.7017108,5.26925584 C29.7017108,4.99926955 29.9181167,4.83727778 30.3779792,4.83727778 L38.5202515,4.83727778 C38.7637081,4.83727778 39.0071648,4.75628189 39.19652,4.59429012 C39.4129259,4.45929697 39.5752303,4.24330794 39.6563825,4.00032028 C39.6834333,3.75733262 39.8186869,3.62233948 39.9539406,3.62233948 Z M182.105571,4.27030657 C182.376078,4.27030657 182.457231,4.35130246 182.538383,4.51329423 C182.673636,4.78328052 182.754789,5.08026544 182.754789,5.37725036 C182.754789,5.67423528 182.619535,6.13321197 182.349028,6.43019689 C182.105571,6.67318455 181.753911,6.83517633 181.402252,6.83517633 C181.050592,6.83517633 181.050592,6.8081777 180.915338,6.70018318 C180.698933,6.53819141 180.61778,6.40319826 180.61778,6.26820512 C180.61778,6.19733372 180.742045,6.12646231 181.008695,6.10985183 L181.08,6.107 L181.142781,6.13796373 C181.230209,6.17856967 181.3211,6.20880813 181.429303,6.18720923 C181.808013,6.18720923 181.997368,5.9712202 181.997368,5.5122435 C181.997368,5.24225721 181.943267,4.97227092 181.753911,4.78328052 C181.753911,4.70228464 181.69981,4.64828738 181.672759,4.56729149 C181.672759,4.35130246 181.835064,4.27030657 182.105571,4.27030657 Z M142.827899,3.78433125 C143.071355,3.78433125 143.179558,3.86532714 143.179558,4.08131617 C143.179558,4.4862956 142.990203,4.86427641 142.746747,5.16126133 C142.368036,5.45824625 141.881123,5.59323939 141.39421,5.53924213 L132.98143,5.53924213 C132.710923,5.53924213 132.548618,5.45824625 132.548618,5.24225721 C132.548618,5.02626818 132.710923,4.83727778 133.062582,4.83727778 L141.502413,4.83727778 C142.232783,4.83727778 142.584442,4.56729149 142.584442,4.00032028 C142.584442,3.43334907 142.719696,3.78433125 142.827899,3.78433125 Z"/></svg>